<mxfile host="Electron" agent="Mozilla/5.0 (Windows NT 10.0; Win64; x64) AppleWebKit/537.36 (KHTML, like Gecko) draw.io/24.7.17 Chrome/128.0.6613.36 Electron/32.0.1 Safari/537.36" version="24.7.17">
  <diagram name="Page-1" id="UCHdOjrzrSsgritIRyrm">
    <mxGraphModel dx="1332" dy="558" grid="1" gridSize="10" guides="1" tooltips="1" connect="1" arrows="1" fold="1" page="1" pageScale="1" pageWidth="1169" pageHeight="827" math="0" shadow="0">
      <root>
        <mxCell id="0" />
        <mxCell id="1" parent="0" />
        <mxCell id="BNOFNAKZuXbQfmV0z-QA-1" value="" style="rounded=0;whiteSpace=wrap;html=1;dashed=1;fillColor=none;strokeColor=#ffe5e5;" vertex="1" parent="1">
          <mxGeometry x="45" y="80" width="180" height="720" as="geometry" />
        </mxCell>
        <mxCell id="BNOFNAKZuXbQfmV0z-QA-3" value="" style="rounded=0;whiteSpace=wrap;html=1;dashed=1;fillColor=none;strokeColor=#ffe5e5;" vertex="1" parent="1">
          <mxGeometry x="270" y="80" width="650" height="720" as="geometry" />
        </mxCell>
        <mxCell id="BNOFNAKZuXbQfmV0z-QA-4" value="" style="rounded=0;whiteSpace=wrap;html=1;dashed=1;fillColor=none;strokeColor=#f2d9d9;" vertex="1" parent="1">
          <mxGeometry x="970" y="85" width="190" height="715" as="geometry" />
        </mxCell>
        <mxCell id="BNOFNAKZuXbQfmV0z-QA-5" value="&lt;font style=&quot;font-size: 24px;&quot;&gt;Data Warehouse&lt;/font&gt;" style="rounded=1;whiteSpace=wrap;html=1;fillColor=default;strokeColor=none;" vertex="1" parent="1">
          <mxGeometry x="520" y="60" width="210" height="40" as="geometry" />
        </mxCell>
        <mxCell id="BNOFNAKZuXbQfmV0z-QA-6" value="&lt;font style=&quot;font-size: 24px;&quot;&gt;Sources&lt;/font&gt;" style="rounded=1;whiteSpace=wrap;html=1;fillColor=default;strokeColor=none;" vertex="1" parent="1">
          <mxGeometry x="75" y="60" width="120" height="40" as="geometry" />
        </mxCell>
        <mxCell id="BNOFNAKZuXbQfmV0z-QA-7" value="&lt;font style=&quot;font-size: 24px;&quot;&gt;Consumers&lt;/font&gt;" style="rounded=1;whiteSpace=wrap;html=1;fillColor=default;strokeColor=none;" vertex="1" parent="1">
          <mxGeometry x="1005" y="60" width="120" height="40" as="geometry" />
        </mxCell>
        <mxCell id="BNOFNAKZuXbQfmV0z-QA-8" value="" style="rounded=0;whiteSpace=wrap;html=1;fillColor=none;strokeColor=#d79b00;" vertex="1" parent="1">
          <mxGeometry x="290" y="165" width="180" height="605" as="geometry" />
        </mxCell>
        <mxCell id="BNOFNAKZuXbQfmV0z-QA-9" value="&lt;font color=&quot;#0000ff&quot; style=&quot;font-size: 20px;&quot;&gt;&lt;b&gt;Silver Layer&lt;/b&gt;&lt;/font&gt;" style="rounded=0;whiteSpace=wrap;html=1;fillColor=#f5f5f5;strokeColor=#666666;fontColor=#333333;" vertex="1" parent="1">
          <mxGeometry x="490" y="130" width="200" height="30" as="geometry" />
        </mxCell>
        <mxCell id="BNOFNAKZuXbQfmV0z-QA-10" value="&lt;font color=&quot;#0000ff&quot; style=&quot;font-size: 20px;&quot;&gt;&lt;b&gt;Bronze Layer&lt;/b&gt;&lt;/font&gt;" style="rounded=0;whiteSpace=wrap;html=1;fillColor=#ffe6cc;strokeColor=#d79b00;" vertex="1" parent="1">
          <mxGeometry x="290" y="130" width="180" height="30" as="geometry" />
        </mxCell>
        <mxCell id="BNOFNAKZuXbQfmV0z-QA-11" value="" style="rounded=0;whiteSpace=wrap;html=1;fillColor=none;strokeColor=#666666;fontColor=#333333;" vertex="1" parent="1">
          <mxGeometry x="490" y="165" width="200" height="605" as="geometry" />
        </mxCell>
        <mxCell id="BNOFNAKZuXbQfmV0z-QA-12" value="&lt;font color=&quot;#0000ff&quot; style=&quot;font-size: 20px;&quot;&gt;&lt;b&gt;Gold Layer&lt;/b&gt;&lt;/font&gt;" style="rounded=0;whiteSpace=wrap;html=1;fillColor=#fff2cc;strokeColor=#d6b656;" vertex="1" parent="1">
          <mxGeometry x="720" y="130" width="180" height="30" as="geometry" />
        </mxCell>
        <mxCell id="BNOFNAKZuXbQfmV0z-QA-13" value="" style="rounded=0;whiteSpace=wrap;html=1;fillColor=none;strokeColor=#d6b656;" vertex="1" parent="1">
          <mxGeometry x="720" y="165" width="180" height="605" as="geometry" />
        </mxCell>
        <mxCell id="BNOFNAKZuXbQfmV0z-QA-14" value="" style="image;aspect=fixed;html=1;points=[];align=center;fontSize=12;image=img/lib/azure2/general/Folder_Blank.svg;" vertex="1" parent="1">
          <mxGeometry x="110" y="149.42" width="50" height="40.58" as="geometry" />
        </mxCell>
        <mxCell id="BNOFNAKZuXbQfmV0z-QA-15" value="" style="image;aspect=fixed;html=1;points=[];align=center;fontSize=12;image=img/lib/azure2/general/File.svg;" vertex="1" parent="1">
          <mxGeometry x="147.5" y="170" width="25" height="30.8" as="geometry" />
        </mxCell>
        <mxCell id="BNOFNAKZuXbQfmV0z-QA-16" value="CRM" style="text;html=1;align=center;verticalAlign=middle;whiteSpace=wrap;rounded=0;" vertex="1" parent="1">
          <mxGeometry x="105" y="200.8" width="60" height="30" as="geometry" />
        </mxCell>
        <mxCell id="BNOFNAKZuXbQfmV0z-QA-17" value="" style="image;aspect=fixed;html=1;points=[];align=center;fontSize=12;image=img/lib/azure2/general/Folder_Blank.svg;" vertex="1" parent="1">
          <mxGeometry x="110" y="259.71" width="50" height="40.58" as="geometry" />
        </mxCell>
        <mxCell id="BNOFNAKZuXbQfmV0z-QA-18" value="ERP" style="text;html=1;align=center;verticalAlign=middle;whiteSpace=wrap;rounded=0;" vertex="1" parent="1">
          <mxGeometry x="105" y="310" width="60" height="30" as="geometry" />
        </mxCell>
        <mxCell id="BNOFNAKZuXbQfmV0z-QA-19" value="" style="image;aspect=fixed;html=1;points=[];align=center;fontSize=12;image=img/lib/azure2/general/File.svg;" vertex="1" parent="1">
          <mxGeometry x="147.5" y="279.2" width="25" height="30.8" as="geometry" />
        </mxCell>
        <mxCell id="BNOFNAKZuXbQfmV0z-QA-26" value="Object Type: csv&lt;br&gt;&lt;br&gt;&lt;br&gt;Interface: Files in Folder" style="text;html=1;align=center;verticalAlign=middle;whiteSpace=wrap;rounded=0;" vertex="1" parent="1">
          <mxGeometry x="55" y="420" width="140" height="30" as="geometry" />
        </mxCell>
        <mxCell id="BNOFNAKZuXbQfmV0z-QA-28" value="" style="html=1;verticalLabelPosition=bottom;align=center;labelBackgroundColor=#ffffff;verticalAlign=top;strokeWidth=2;strokeColor=#d79b00;shadow=0;dashed=0;shape=mxgraph.ios7.icons.data;fillColor=#ffe6cc;" vertex="1" parent="1">
          <mxGeometry x="345" y="210" width="60" height="70" as="geometry" />
        </mxCell>
        <mxCell id="BNOFNAKZuXbQfmV0z-QA-29" value="" style="html=1;verticalLabelPosition=bottom;align=center;labelBackgroundColor=#ffffff;verticalAlign=top;strokeWidth=2;strokeColor=#666666;shadow=0;dashed=0;shape=mxgraph.ios7.icons.data;fillColor=#f5f5f5;fontColor=#333333;" vertex="1" parent="1">
          <mxGeometry x="565" y="210" width="60" height="70" as="geometry" />
        </mxCell>
        <mxCell id="BNOFNAKZuXbQfmV0z-QA-30" value="" style="html=1;verticalLabelPosition=bottom;align=center;labelBackgroundColor=#ffffff;verticalAlign=top;strokeWidth=2;strokeColor=#d6b656;shadow=0;dashed=0;shape=mxgraph.ios7.icons.data;fillColor=#fff2cc;" vertex="1" parent="1">
          <mxGeometry x="780" y="210" width="60" height="70" as="geometry" />
        </mxCell>
        <mxCell id="BNOFNAKZuXbQfmV0z-QA-31" value="" style="shape=singleArrow;whiteSpace=wrap;html=1;fillColor=#e51400;fontColor=#ffffff;strokeColor=#B20000;" vertex="1" parent="1">
          <mxGeometry x="220" y="240" width="60" height="30" as="geometry" />
        </mxCell>
        <mxCell id="BNOFNAKZuXbQfmV0z-QA-32" value="" style="shape=singleArrow;whiteSpace=wrap;html=1;fillColor=#e51400;fontColor=#ffffff;strokeColor=#B20000;" vertex="1" parent="1">
          <mxGeometry x="450" y="240" width="60" height="30" as="geometry" />
        </mxCell>
        <mxCell id="BNOFNAKZuXbQfmV0z-QA-33" value="" style="shape=singleArrow;whiteSpace=wrap;html=1;fillColor=#e51400;fontColor=#ffffff;strokeColor=#B20000;" vertex="1" parent="1">
          <mxGeometry x="920" y="240" width="60" height="30" as="geometry" />
        </mxCell>
        <mxCell id="BNOFNAKZuXbQfmV0z-QA-35" value="" style="shape=singleArrow;whiteSpace=wrap;html=1;fillColor=#e51400;fontColor=#ffffff;strokeColor=#B20000;" vertex="1" parent="1">
          <mxGeometry x="680" y="240" width="60" height="30" as="geometry" />
        </mxCell>
        <mxCell id="BNOFNAKZuXbQfmV0z-QA-36" value="&lt;font style=&quot;font-size: 17px;&quot;&gt;Cleaned, Standardized data&lt;/font&gt;" style="text;html=1;align=center;verticalAlign=middle;whiteSpace=wrap;rounded=0;" vertex="1" parent="1">
          <mxGeometry x="500" y="305" width="170" height="30" as="geometry" />
        </mxCell>
        <mxCell id="BNOFNAKZuXbQfmV0z-QA-37" value="&lt;font style=&quot;font-size: 17px;&quot;&gt;Raw Data&lt;/font&gt;" style="text;html=1;align=center;verticalAlign=middle;whiteSpace=wrap;rounded=0;" vertex="1" parent="1">
          <mxGeometry x="320" y="305" width="110" height="30" as="geometry" />
        </mxCell>
        <mxCell id="BNOFNAKZuXbQfmV0z-QA-40" value="&lt;div style=&quot;text-align: left;&quot;&gt;&lt;span style=&quot;background-color: initial;&quot;&gt;&lt;b&gt;&lt;font style=&quot;font-size: 14px;&quot;&gt;Object Type:&lt;/font&gt;&lt;/b&gt; Tables&lt;/span&gt;&lt;/div&gt;&lt;div style=&quot;text-align: left;&quot;&gt;&lt;span style=&quot;background-color: initial;&quot;&gt;&lt;br&gt;&lt;/span&gt;&lt;/div&gt;&lt;br&gt;&lt;div style=&quot;text-align: left;&quot;&gt;&lt;span style=&quot;background-color: initial;&quot;&gt;&lt;b style=&quot;&quot;&gt;&lt;font style=&quot;font-size: 14px;&quot;&gt;Load&lt;/font&gt;&lt;/b&gt;&lt;span style=&quot;font-size: 13px;&quot;&gt;:&amp;nbsp;&lt;/span&gt;&lt;/span&gt;&lt;/div&gt;&lt;div style=&quot;&quot;&gt;&lt;ul style=&quot;font-size: 13px;&quot;&gt;&lt;li style=&quot;text-align: left;&quot;&gt;Batch Processing&lt;/li&gt;&lt;li style=&quot;text-align: left;&quot;&gt;Full Load&lt;/li&gt;&lt;li style=&quot;text-align: left;&quot;&gt;Trancate &amp;amp; Insert&lt;/li&gt;&lt;/ul&gt;&lt;div style=&quot;text-align: left;&quot;&gt;&lt;b style=&quot;&quot;&gt;&lt;font style=&quot;font-size: 14px;&quot;&gt;&lt;br&gt;&lt;/font&gt;&lt;/b&gt;&lt;/div&gt;&lt;div style=&quot;text-align: left;&quot;&gt;&lt;b style=&quot;&quot;&gt;&lt;font style=&quot;font-size: 14px;&quot;&gt;&lt;br&gt;&lt;/font&gt;&lt;/b&gt;&lt;/div&gt;&lt;div style=&quot;text-align: left;&quot;&gt;&lt;b style=&quot;&quot;&gt;&lt;font style=&quot;font-size: 14px;&quot;&gt;NO Transformations&lt;/font&gt;&lt;/b&gt;&lt;/div&gt;&lt;div style=&quot;text-align: left;&quot;&gt;&lt;b style=&quot;&quot;&gt;&lt;font style=&quot;font-size: 14px;&quot;&gt;&lt;br&gt;&lt;/font&gt;&lt;/b&gt;&lt;/div&gt;&lt;div style=&quot;text-align: left;&quot;&gt;&lt;b style=&quot;&quot;&gt;&lt;font style=&quot;font-size: 14px;&quot;&gt;&lt;br&gt;&lt;/font&gt;&lt;/b&gt;&lt;/div&gt;&lt;div style=&quot;text-align: left;&quot;&gt;&lt;b style=&quot;&quot;&gt;&lt;font style=&quot;font-size: 14px;&quot;&gt;&lt;br&gt;&lt;/font&gt;&lt;/b&gt;&lt;/div&gt;&lt;div style=&quot;&quot;&gt;&lt;div style=&quot;text-align: left;&quot;&gt;&lt;font style=&quot;font-size: 14px;&quot;&gt;&lt;b&gt;Data Model&lt;/b&gt;:&lt;/font&gt;&lt;span style=&quot;font-size: 13px;&quot;&gt; None&lt;/span&gt;&lt;/div&gt;&lt;/div&gt;&lt;/div&gt;" style="text;html=1;align=center;verticalAlign=middle;whiteSpace=wrap;rounded=0;" vertex="1" parent="1">
          <mxGeometry x="310" y="510" width="150" height="30" as="geometry" />
        </mxCell>
        <mxCell id="BNOFNAKZuXbQfmV0z-QA-42" value="&lt;div style=&quot;text-align: left;&quot;&gt;&lt;span style=&quot;background-color: initial;&quot;&gt;&lt;b&gt;&lt;font style=&quot;font-size: 14px;&quot;&gt;Object Type:&lt;/font&gt;&lt;/b&gt; Tables&lt;/span&gt;&lt;/div&gt;&lt;div style=&quot;text-align: left;&quot;&gt;&lt;span style=&quot;background-color: initial;&quot;&gt;&lt;br&gt;&lt;/span&gt;&lt;/div&gt;&lt;br&gt;&lt;div style=&quot;text-align: left;&quot;&gt;&lt;span style=&quot;background-color: initial;&quot;&gt;&lt;b style=&quot;&quot;&gt;&lt;font style=&quot;font-size: 14px;&quot;&gt;Load&lt;/font&gt;&lt;/b&gt;&lt;span style=&quot;font-size: 13px;&quot;&gt;:&amp;nbsp;&lt;/span&gt;&lt;/span&gt;&lt;/div&gt;&lt;div style=&quot;&quot;&gt;&lt;ul style=&quot;font-size: 13px;&quot;&gt;&lt;li style=&quot;text-align: left;&quot;&gt;Batch Processing&lt;/li&gt;&lt;li style=&quot;text-align: left;&quot;&gt;Full Load&lt;/li&gt;&lt;li style=&quot;text-align: left;&quot;&gt;Trancate &amp;amp; Insert&lt;/li&gt;&lt;/ul&gt;&lt;div style=&quot;text-align: left;&quot;&gt;&lt;b style=&quot;&quot;&gt;&lt;font style=&quot;font-size: 14px;&quot;&gt;&lt;br&gt;&lt;/font&gt;&lt;/b&gt;&lt;/div&gt;&lt;div style=&quot;text-align: left;&quot;&gt;&lt;b style=&quot;&quot;&gt;&lt;font style=&quot;font-size: 14px;&quot;&gt;&lt;br&gt;&lt;/font&gt;&lt;/b&gt;&lt;/div&gt;&lt;div style=&quot;text-align: left;&quot;&gt;&lt;b style=&quot;&quot;&gt;&lt;font style=&quot;font-size: 14px;&quot;&gt;Transformations:&lt;/font&gt;&lt;/b&gt;&lt;/div&gt;&lt;div style=&quot;&quot;&gt;&lt;ul&gt;&lt;li style=&quot;text-align: left;&quot;&gt;&lt;font style=&quot;font-size: 14px;&quot;&gt;Data Cleansing&lt;/font&gt;&lt;/li&gt;&lt;li style=&quot;text-align: left;&quot;&gt;&lt;font style=&quot;font-size: 14px;&quot;&gt;Data Standardization&lt;/font&gt;&lt;/li&gt;&lt;li style=&quot;text-align: left;&quot;&gt;&lt;font style=&quot;font-size: 14px;&quot;&gt;Data Normalization&lt;/font&gt;&lt;/li&gt;&lt;li style=&quot;text-align: left;&quot;&gt;&lt;font style=&quot;font-size: 14px;&quot;&gt;Data Columns&lt;/font&gt;&lt;/li&gt;&lt;li style=&quot;text-align: left;&quot;&gt;&lt;font style=&quot;font-size: 14px;&quot;&gt;Data Enrichment&lt;/font&gt;&lt;/li&gt;&lt;/ul&gt;&lt;/div&gt;&lt;div style=&quot;text-align: left;&quot;&gt;&lt;br&gt;&lt;/div&gt;&lt;div style=&quot;&quot;&gt;&lt;div style=&quot;text-align: left;&quot;&gt;&lt;font style=&quot;font-size: 14px;&quot;&gt;&lt;b&gt;Data Model&lt;/b&gt;:&lt;/font&gt;&lt;span style=&quot;font-size: 13px;&quot;&gt; None&lt;/span&gt;&lt;/div&gt;&lt;/div&gt;&lt;/div&gt;" style="text;html=1;align=center;verticalAlign=middle;whiteSpace=wrap;rounded=0;" vertex="1" parent="1">
          <mxGeometry x="505" y="540" width="180" height="50" as="geometry" />
        </mxCell>
        <mxCell id="BNOFNAKZuXbQfmV0z-QA-43" value="&lt;div style=&quot;text-align: left;&quot;&gt;&lt;span style=&quot;background-color: initial;&quot;&gt;&lt;b&gt;&lt;font style=&quot;font-size: 14px;&quot;&gt;Object Type:&lt;/font&gt;&lt;/b&gt;&amp;nbsp;Views&lt;/span&gt;&lt;/div&gt;&lt;div style=&quot;text-align: left;&quot;&gt;&lt;span style=&quot;background-color: initial;&quot;&gt;&lt;br&gt;&lt;/span&gt;&lt;/div&gt;&lt;br&gt;&lt;div style=&quot;text-align: left;&quot;&gt;&lt;span style=&quot;background-color: initial;&quot;&gt;&lt;b style=&quot;&quot;&gt;&lt;font style=&quot;font-size: 14px;&quot;&gt;Load&lt;/font&gt;&lt;/b&gt;&lt;span style=&quot;font-size: 13px;&quot;&gt;:&amp;nbsp;&lt;/span&gt;&lt;/span&gt;&lt;/div&gt;&lt;div style=&quot;&quot;&gt;&lt;ul style=&quot;font-size: 13px;&quot;&gt;&lt;li style=&quot;text-align: left;&quot;&gt;Batch Processing&lt;/li&gt;&lt;li style=&quot;text-align: left;&quot;&gt;Full Load&lt;/li&gt;&lt;li style=&quot;text-align: left;&quot;&gt;Trancate &amp;amp; Insert&lt;/li&gt;&lt;/ul&gt;&lt;div style=&quot;text-align: left;&quot;&gt;&lt;b style=&quot;&quot;&gt;&lt;font style=&quot;font-size: 14px;&quot;&gt;&lt;br&gt;&lt;/font&gt;&lt;/b&gt;&lt;/div&gt;&lt;div style=&quot;text-align: left;&quot;&gt;&lt;b style=&quot;&quot;&gt;&lt;font style=&quot;font-size: 14px;&quot;&gt;Transformations:&lt;/font&gt;&lt;/b&gt;&lt;/div&gt;&lt;div style=&quot;&quot;&gt;&lt;ul&gt;&lt;li style=&quot;text-align: left;&quot;&gt;&lt;font style=&quot;font-size: 14px;&quot;&gt;Data Integrations&lt;/font&gt;&lt;/li&gt;&lt;li style=&quot;text-align: left;&quot;&gt;&lt;font style=&quot;font-size: 14px;&quot;&gt;Aggregations&lt;/font&gt;&lt;/li&gt;&lt;li style=&quot;text-align: left;&quot;&gt;&lt;font style=&quot;font-size: 14px;&quot;&gt;Bussiness Logics&lt;/font&gt;&lt;/li&gt;&lt;/ul&gt;&lt;/div&gt;&lt;div style=&quot;text-align: left;&quot;&gt;&lt;br&gt;&lt;/div&gt;&lt;div style=&quot;&quot;&gt;&lt;div style=&quot;text-align: left;&quot;&gt;&lt;font style=&quot;font-size: 14px;&quot;&gt;&lt;b&gt;Data Model&lt;/b&gt;:&lt;/font&gt;&lt;span style=&quot;font-size: 13px;&quot;&gt;&amp;nbsp;&lt;/span&gt;&lt;/div&gt;&lt;div style=&quot;text-align: left;&quot;&gt;&lt;ul&gt;&lt;li&gt;&lt;span style=&quot;font-size: 13px;&quot;&gt;Star Schema&lt;/span&gt;&lt;/li&gt;&lt;li&gt;&lt;span style=&quot;font-size: 13px;&quot;&gt;Flat Table&lt;/span&gt;&lt;/li&gt;&lt;li&gt;&lt;span style=&quot;font-size: 13px;&quot;&gt;Aggrgated Table&lt;/span&gt;&lt;/li&gt;&lt;/ul&gt;&lt;/div&gt;&lt;/div&gt;&lt;/div&gt;" style="text;html=1;align=center;verticalAlign=middle;whiteSpace=wrap;rounded=0;" vertex="1" parent="1">
          <mxGeometry x="720" y="550" width="180" height="50" as="geometry" />
        </mxCell>
        <mxCell id="BNOFNAKZuXbQfmV0z-QA-45" value="&lt;font style=&quot;font-size: 17px;&quot;&gt;Bussiness-Ready Data&lt;/font&gt;" style="text;html=1;align=center;verticalAlign=middle;whiteSpace=wrap;rounded=0;" vertex="1" parent="1">
          <mxGeometry x="730" y="305" width="170" height="30" as="geometry" />
        </mxCell>
        <mxCell id="BNOFNAKZuXbQfmV0z-QA-47" value="" style="shape=image;verticalLabelPosition=bottom;labelBackgroundColor=default;verticalAlign=top;aspect=fixed;imageAspect=0;image=data:image/png,iVBORw0KGgoAAAANSUhEUgAAADAAAAAwCAYAAABXAvmHAAAACXBIWXMAAAsTAAALEwEAmpwYAAABH0lEQVR4nO2XvQ2DMBBGbwHvkSY70GUIKOhpqIAmE6SAOqFIJglVZskWF1kKkgt+fNhgjO9JnyxZFPd8trABmGHK+hFVTYtyBB8pWcDRqvcp6nsut5Ac1XnYM1XT4lycFohPQJk1OpBebygDLgVMDnHKAhoE1QEqKQsMrDQ1QFhpaiAogTGCOgPf4ox9dL5PWUAD7sAWW6ic+IO66ECcvaMk61COxgIUqAJjhCFQLrzHq0UuDYwUrST/C+TqvJWX1FoCSdbhXI7VAe/PQDACn9MJZdYQEJcXyhgLTOFCwCosMIHgDljeQlSEzQ70hVJDKZQaCErA+y00RlACMfEPKlhAg8N3IDa4x4stBOYgv6T2htFLam9Yvce7gAUY8IMfuT9B6eZNKYoAAAAASUVORK5CYII=;" vertex="1" parent="1">
          <mxGeometry x="1068.6" y="228.99" width="64" height="64" as="geometry" />
        </mxCell>
        <mxCell id="BNOFNAKZuXbQfmV0z-QA-49" value="" style="shape=image;verticalLabelPosition=bottom;labelBackgroundColor=default;verticalAlign=top;aspect=fixed;imageAspect=0;image=data:image/png,iVBORw0KGgoAAAANSUhEUgAAAIAAAACACAYAAADDPmHLAAAABHNCSVQICAgIfAhkiAAAAAlwSFlzAAADsQAAA7EB9YPtSQAAABl0RVh0U29mdHdhcmUAd3d3Lmlua3NjYXBlLm9yZ5vuPBoAABjISURBVHic7Z15fBRVtsd/53YHSCLIqoCigAtBZwbZxRG3p6CjBkYMOvoICWInLAHiCBKSOOUkIYCaAAGy0IQGHovgMui4AA4q+lgMiLhAQI2OIDBAAgSz9VLn/ZGA3U26u7q7ujrpl+/nkz84XXXvoevXt+5y7rlACy200EILLbTQQgsttPD/Cwq2A1rBzFSdP28AbGIUEQ0HuBuAa+s/paMATjLkHYDYHDl11hfB9FVLQl4AzEw1S14eC+K/A7hZ4W1HwJQWPnXm60TEgfQv2IS0AGqXZt8os24dwIN9K4H3CMFPtZmcUqauZ02HkBVAzeIFw1nwGwC6+FlUBbEcE56Usl0Nv5oaISmAmrzs+5jEBwDCVCrSQiyPCE9K+Vil8poMISeAmryXezHJnwPorHLRFYLkoW2mpHyvcrlBRQTbATVhZmLi16D+wweAjrIs1jBzSP1oQkoANUvnP+F7h08BhNtrli0YE7Dyg0DICKD+l0kvBb4iygilViBkBFC9ZMFAKB/n+wFHVefNuy3w9WhDyAgAxKO0q0toV1eACRkBEMSdmtVFNFyrugJNyAgAxNdoV5mWdQWW0BEAo5uGtbUIoAmiWc+cwbJWdQWaUBLAKa0qIojjWtUVaPS+3sjMtPiL0gGw0SgiHs7AxfV1IlA5g38E+FNmbJ0x5JYd6rncOHUyylsL9Ap0PfXwCW3qCTxeN5vMTItKDo0lIuXr64SDJOPlpMFRq9RcX0+MTb2GBT1OhPEju7XqP7J7a7WKdgszXopMekHSpLIA45UAcvZ9e6NOFusA+DTdSsAuGRQ/Y3DUYV/uB4AJE2a1bc1hjzFjHED3ouE11usKHZKiInwt1itYlgdETkvZr0llAUaxAPL2ld4ny7wJQEc/6zzL4CdmDL5lm9IbJEkSx3+23EGMcSTTUyBc4XwNEWHmLeHoGq7z0z1PUGn4lJm3hEqkkCIBNDx8NdfX60D00PRBUR+5u2jK+PRbrcTjCIgFPA7zbPd0bXU4+trWt6jkY+MwPR6RNOuNgNahIR4F0NDs74H/v3xnzutkDJk6tO8Re+PUCVJ3i2yNaXjoAzwXQwcJvNqil03LR9x2pubUjzsA3KGyrxfZGT5l1p2h8usHPIwCmJkW7y1dB/UfPgBcaRO8QmK++/zY51rXRkY8wkyxVpv1QSIPoxPGMQh6kwnFhcUZBy6ajUagdtGCOFnHXwCXvyb8ocrCWHu09rUZIfTwAQ8twMLPDz5BRBsC6cCpkgMfl+/5ZlBj73UnzgN4mwRW5xdn/guAywfREBL2LoA2avhoZaDwSDV+uGCzMfG4wpVZ69UotyngUgANv/5SBHiJta7iHH7c8B6YG32eNjA+YtCaarnmjTVrXqlSWu6ezOzEG9tSfrjOvwnCKgvDVFaDHy7YLvkUSiJw+e0s2ndoIGTs1cKJf7+5FdUnTtubSsD8P2FCXp+3Mvu0q/tcERMTo+sU2WdX59Zi8Lje4egR6fOE507jd3XrD54z58LxtRQyInD5rmUbjybSZno9skc3VB8/3eh73Rc6R/Z5joHBZ+pkLDxUhUGd9fhzj/DjbXTorrCIw2BKDZ86881pRJw4Pv0UmNfaiUBHTGsS4lPR3EXg8gkvLjn0EQP3aOGErbrm611Lsvtv2rTJ5vlq90wcl9YrTIevGYi8ZCRszC/OeLJ22fw/siweBngYCDcA6ATABtAxgE8wYweI3m5sa1ji+PSxgIMIgBBoCVy3AIRrXHez1EUXER6pxsMHQHqBIoeHD1RYdfK0hqHbZw1/XlOwKmNj4vh0hFpL4PrlqO36+tVqFJIYn2YA4X57GzMlG41z/6NG+QWrMjYC9DQYVjvzRRH8RY06tMZd70jL8a7fy9JTJ0jdmTHP0cr/KlyVscbfsu0JNRG4++K1XPI8528BFtm6lID2F/9NQBWJMAMCIORQEoE7AfyimRfAEc+XuCYhPvUvBIy2tzHR7PxiKWC7ekNFBC4FwIRPtXKCwZ/7eu+U2JROxLTQyby76/W6ZX665ZFQEIFrAYA3a+XEyY8+bztu3PORnq+8HJvQLQJwlZ2pjsn2jCRJmsTtuRPBpLj0p7TwwR88TQUfAtAnkA6Yz1WibN0/wTKfAWFpmEWfk7dWqlRy76TYOQ+xEO/Z2wicmm/KmhsYb13jap6AQLH5pox1WvujFJctABExE6UH2oEz+76tXwcgdAbwN4ve+kNiXJqU9LTUzt19SU9L7ViIQifzV7ZWp18OnLeucdUSMHh1U24J3A6/pg/s8zqAPYGqvPZUubXy8I+ORoVCsOit8wD0uGRgWIlpQlFRkSVQ/nqiOYrA42R/7q5DPYUen8P/VCvOnD1/8sS9J97Y/qAMzLYfwjnAuOzVkBCbPowEfwYHAdO8AlNGiqvKGKCzE5PvZIFHIdNQEN+A+jgHGcBRAk4ysEMm3tylaKFfWcKa0+tA0WrPor2l94J5C9QLCatlcPTFuMAJE2a1bS23mqxICGRbaoHuEzD6/vYRHYmo+vW23E25NZfdJkmi/Pj5cYKRxsCNCv07AqK0jkU5r5OP8wjNRQSKl/tySw7dI4DXUb+A4jOyzWYWev2DjcUDKhMC14Ao3L5IZr63cFXWZXsPTj/73M2ifu5+kI/u7tHZ8FT74lyf5hOagwi8Wu/NLTnSW7BtLQi3+1JZzcnT+GXbLtlyrnJYweosl2N/RUK4CLOxYFXWs87mimdnPMSgjfA3NIxRLguK6VKU4zaA1RVNXQQ+bQzJ23t4DIMzoXCIaD5/wXzm869bnf/uJ4AZYOzt2ks/1NNYXYkQiFHOhCX2fYSKic/9SSZ+kwC1dopYZOYRXYwLP/bl5qYsAr8iPhaXfNufIUYxYzgRuqN+a5gOhAowjjDoc5Z585HCtZEsw2kfAD1TYMooVlJPvRDCNjFopMuLGvoIE6nu7V5663YAV/r+P2uUCpuMoVetyPUpS1hTFYFmO2onxaW9wcBjdqZTbaDvs9AkeVwIejY25Wad0B2AhyBPAjBZX2vtTjaf9zx6YHfH5bl3aNExZGbC/qyBEGIUCMPB1BXghtzGOArgJIAdIN5M/VJ9HrVotjuYiGcQYB/UeVUt2TwmdZIkSeiEzgj7h89cTkyZ7LSK2F9YEcCHDwC3V0yc4XOWMCXzBMxM/GXWWByYdxhClABIA+NugPugPtAlEkAU6qO1XgTTPv5y7mHenx3jS/IqzQSwbGXWUZl5gYOReUrChPR+7u47+W/bZACOKVlITM1flZFuEebrCJjNwDkCcLdOgzkgogz2o+V0J4L8jBeTcSB7N0CvAXyTF8XeDOKNOJC9i7/K7u2NP5rmB2jVrnI+gO/sTDph4yVw8YUaYqXrwOwwr8+gdwtMGRsAoLh4wYV8U+Z8q05/wyBhWd0Zmqz/RJ175jm/soQ1JoIbugvd0//VOgfAED+KHgqZS/hA9n1Kb9BUAHl5eXUM/qu9jQl3TopLb3TpVCdsSwC0tTNV2vS6ROfrVqyQKkYLs9fh474i6+B3ljB7EfTpocOMMW3QNkKVLllHMH/A+7PvUXKx5hlCCk1Z7zDoXXsbg181GF5w6LUnjE+PZfCj9jZimmk0SscaL5kClyHUGWZVsoQVrMrYOCRKzDI80hp6dTc1hwH8upLXQVBSxDDzdAC1dqauZA5LvfgPg0HqTMSvON32Sf6qjOUuCyUO6LK1Y13qJIliZor/U5uYiEDktSB0goy1njqGQRFA0arMH0B41d5GwIzJ49L6AoCwWJfCcfGpRuj0E+Fm+MWeZgxVRGZcN3HiHP8jmQ9kx4ExTAWXXMC346tst6OWoOW8TY5JDq+JjDgIUM/frPwvEC0E4x37a5l4ZuHKLOcWwYHyZ5Mr4dhfCBgWECRLBADUAfwLmMpYcJlgKpPBB4UI+/bq6/CzJElWd+Xwl3O/BRDYfAZAKfqluExoEdSkx5PiUmMa5usvQczlTPTbghNhf9fr9UM8fZnlzyYfhia5goHzICyweExHYwH4qL04AC4DizKK1B1eamhzGyBrFHdJA+i2xlPaBDVNXL4paxPAW+xtDg+fYYWNnvH08AGANIxi/o+s6GsLA6g3CPcTk4GBeQzayMR75Wpr5Yf7zO95LkIlWHY5agl6nkBho2QAjc7gkKC5BaszFCVjYmgXxXwS4gQARXGLLqBrOpMmr6v62lznNg66AJatyTwE4vzLP+GyGtZlKy1HJu2imO8i62MFpswryWztSEyDCDyWgNlMXATGhwCXAe5npbp21PKrJ5ejlkDOmytHhnDujRDotMkk1TZ+w+V0Llq4v8KQfBgc2ChmAr7oaMzZDQD56+adBbCv4c+BpKSk1taqTtcA1t6wUW+ZuDeBegO4Fcw3XxGu5XfvOrl10AWQGJs6BESTnO0MDE2MT3ukYGXmP5WUQwCXg9IB3uj5aj9gylVyWV5eXh2AsoY/BwwGQ5he17MK6oXYecJlaxTUV0BMjNQKRCsAND4PxlgYFycpzvPTsSgnoFHMBHzUwZiz1t9yioqKLESoUMMnZZDLfZ5BFUCnSOscEH5nb2OGfZ6AG8LJ8rzS8ghgnQ1PgVGumpO/USlsmOhrLMDl8Heer1ELdjlCCpoADHEpUQBmO1q5mODYIWSmOYlxUk+l5bYvzi2TBcXAxcjCR6qFkB/1NTjUBT7FGPrIJ64+CIoAJEkSAroVcIzZO0lm2/Nksb0IwH5lLxxs9Wq3T5einI9k5hEqtQRnwWJ0h8JF6mY8Z7ypannukIXLEVJQBHDiJ8sMOGXzZGBK/rp5Z/PXzTtLRHMcbiA8nhCX9qA3dXQxLvxYJ2MIgN1+uLpTyKJ/J+OrivMaK4X6p34JoFTtchuhlAbMdpl0S3MBJMZJPYmdzvdjvF5oyrz0i7j6el0xnB4cAYuTkpK8WjdrX5xb1nF57h1gjgFBeYZy4m/A9GTHa64c3mHFq//2pk6vIEoLWNm/VTLH3adaC4AAS5FTVtDzYJ5hf5EkSTIxTYXj8OUm86/tknyokDsZF77eqSg3Ssg0AEQvAdh+mglmEMwAylmAgI/BLDHJt3fs3r5fJ2POaxTgLebUL+UNBHQGk3ai3+x/uL0icJVfzqT49InM7LSmT/EFpgxTY9cnxqUVAbDf9HEBMvctWJ3l97x/YlyaQ2++wJQZlIWxPeszB93ak3ZFhpO6czKMcuhtQ+n36T+4u0yzFsDw33O6sXNQKLC9wJSxytU9Fp1+NuDQkWsLQfMD4mAQMBikzsVbak1L367TW6yqpjIygzHG08MH/JkJZKbRxq0DZPAohhhO4ItnBgkAFQB+IKJdYPndzRNHfiYmvLgUzB3sSqgmoX8WbsbVK1ZIFZPGp/2NCUvszE8nxqUZC0yZH/vsexPAYHjhSmG2fgDg1h9PyMh7qw6GR1rjinB/GyI+A5kepwFzXA797PG+BWCmUcu3PBFt3FIqA3sBSifwPajfJhYJIBz15+rdxcwvMGjHqML3j1d3uerPTuWkKEnidHUvfT7YMWcxA0skSQr6NLavGAxShDCHvQNg4EXbd7/IyNlUt43Zn5lM2gkWg5U+fMBLAUQbP7gx2rhtDwMbAFIcfME6XddzN92M0/1ugzU8AgTsKa8+slTJvZIkyULwdNi1FATceuIn62XrB82B5JjkcLJY/gnnvQ6MD3+sENF0W8owEGLg3RCxFMAY9Jt9J/VP+ckbfxS3N48u33IfgE3k5+ERZLMhvLIyYcOsJ4u8uS8xLm01gHF2pkoBfZ9lJumkL34EoxNoMBjCyHz1WwR+2OmjnSJCP3LZMunXiwa7rWGPArgLoG4NW8MYwDEAx0G0A7K8uWFOwScUNaOPLt9yHwGqnBnEOh2qO3TIe7Roy9F3DCPfV3qfVS/P1FtFNH7b9NmOYc0EMNFfn7QgJiZGpzNftYadHz5hfxvWP7zQ7uED9TmaAOxt+AsYHl8B0cYPbgSwCeouXbYiYMOfl2/r6/nSeozGuf9h8N/tbQzET4pL9SlXgcZQ58g+hQw84WT/WmezPaBkg2ygcC8AZgKLdf42+41CaGcjeWXMxo2Kt0R06xm2GMDXdibBoKUxMTGBPivOH2hSXOoyBp5xsn8noB+xdHV2IFYuFeNWAKOMW8cCHLgdN4yhdZVXjld6uSRJVgJNgePQcUDniCjnL7fJkBCXNp9BztvZftbp+AFf+y9q4iZdPJNzkxsgZkuSpHg0km/K+BSETfY2Js42GKTO6rvmH4nxaZkEzHQy/0JCf+/SFVmBW2PwApdffHTxtoHeDPV8hnHTvm5/9OqcP6tO/1cw7DtNHYXZ4jHXgJYkxqclg5HqZD4tbHggkEmsvcX1L0+Wo7VygoR3dRmN0jEidooYpsTJcenabRB1Q2J8+lQwcuxtDJyDTCOXrck8FCy/GsNNsmihyg5YJbAPO3vPVIW9Ajgs8QoZvBDB3u0UnzoezIuczJU60Ailexy0xHWuYMhKT9jyGwJ7/arZtEkyC8Y0J/MdCePTxzV6gwYkjk8dw0wr4Pi9VhNR9DJTRkmw/HKHm84XaSYA+DjMXLYqcytADuFORLxgRpyk2U7hiyTEp44C0Xo4RjibSZYfz1+ZoXhuXmuayplBPtcly7ppAKrtTFfXsvVF/11SzqQJafcT0wY4TpZZiBGTv3qu4tnOYOBGANwszgwqWi39DMA5aDRpUuycP/jnkjImx6feARn/gGMKOxsTj89flfm2Fj74g5t5AGo2ZwaFV1XNJ+C3vPMEPQvhMvmUWiTGpg6RmT5wOqeQAUxqLucIuhkFkGa7bQH4fGYQAORuyq1h2TH5FIDhCfGpY/0p1x2TYuf8AYLeh1NSCgY/X2DKdJ3KponhpgWQNdtt277s+3YGg+Qx44I7ClZnvQVih/ctyfTK5MmSf8miGyEhLu0mFmILLuu8ckqhKSun0ZuaKC4F8I5h5H7Ai1BqH9HX1CDi5MkEYbZ+nxCXNj05Jjnc812NI0TYNAB1lwyEa7nK6jYs2lsMsdJ1BGwD0NXpo5cKTFnzGrunKeP2HRlt3BoDDuxu2/bfHUHEKYeTXU8T8GqbqqrFjR0A4YmEuLR5BLxgZzKTwB+Wrcg4kldSehcLjATzcEtVzZ361q0AErCZzdC3Cf8UgvcA9N7ZgX0+kYguCwmfOFG6Nsxq3cFAL6ePFhWYMmc4X98ccN9JYqboFVt3gTE0EJWH/XrB1uWrAzpwo6PAUwTkeCuE+ng760EA1wMAiNBpQN+DV93eXw+FOYQI+B6g7K4/9lk1dizZACApPqWL80kl9XBxgSnLbQazpozHXvLo/Pd7ynoRiDODLoRXnB3R4dA3DwJIBuDqlDCvhZAYl/4kwOtbtW+H7vcPQ/jVvi0UMrBXR2LcD0vWn6wl63Yw+jtdsqZrT32cVmcUBgJFw6ToFR/cC5lUPTOIWIzebHhgC1AfHy/M1qlQUQiz5hq/7HbXkH6itX8uM/OFY1s/O/Hr9z87th5Eb3W9XjdWSQKrpozicfLo5e/fI0P4fWYQGJUEHrPZ8OCHzh+pJYSFJQcfIMa7IFJFsGyz4ei7H6Pq6MmG/wK2tmp7ProhC0izxquJkoeLP+yts9nWAr6dGQRQiZCtf/lHwp/c7ljxRwiLd397C+vEbqicNFKus6DstXdhuVC1vRb6h73JX9SU8X6mjJlGGbeOYUDxmUEAH2FC5sBju9d68770VghXbsyp61BS+r++HmrlidrTFRcqPvmmx/z5CecDUX4w8GuqNNq4rX9DEsLhgN2ZQUA5g74HeLdgvLPZMHKnP/UoFULXuwd+2uF3UT6f6KEEAp6aNrhvs5jmVUJQgye8xZMQej35MNp0CvBKMOHg2YFRv29snqA50qwEcBGDQepMZuvzBCQBiACAiG5dcP1jIzSpX5ZxR/LQvrs0qSzABD1TqC8UFUlnCk2Zs616uTeBcgBUR/Topln9QsD18XXNjGbZAjiTFJ/S5bqnRu9r1b5dD89Xq8In0wf3vUejugJKs2wBnMlbmX26VYd2Ns9XqsWl8/uaPSEhAAAA4yrtKiPnlcBmS+gIANCwBdC0roASSgLQMobxuIZ1BZRQEoBmMYzMLQJocjBpd2KIcJN7t7kROgKAdieGgF3n3m1uhMQ8AFCfU2fx3tJDULxA5TOl0wf3VZzZpKkTMi0AETETpQe8IplVDTINNiHTAgCXWoFdQGBiGAHsnDYo6k5XhzA2R0KmBQDqWwHZiifheN6AWpQT6WND6eEDISYAAEge1vcnED0BdU8MMRNjzLRBN3nMvdvcCDkBAMD0QVEfgcR9zDilQnHlQtBD04b0DZmhnz0hKQAAmD6oz2dMumFg/04Mka0YlDQwartqjjUxQqoT2BjMTHl7D49hsBcxjCglRmrS4Ki3Qu2d70zIC8CexSXf9meIUcwYTnQphhEAjjHjOBF2yCxvTh5yq8+5d1tooYUWWmihhRZaaKGFFpo2/wdRteo+9xW2egAAAABJRU5ErkJggg==;" vertex="1" parent="1">
          <mxGeometry x="1030" y="600" width="70" height="70" as="geometry" />
        </mxCell>
        <mxCell id="BNOFNAKZuXbQfmV0z-QA-52" value="" style="shape=image;verticalLabelPosition=bottom;labelBackgroundColor=default;verticalAlign=top;aspect=fixed;imageAspect=0;image=data:image/png,iVBORw0KGgoAAAANSUhEUgAAADAAAAAwCAYAAABXAvmHAAAACXBIWXMAAAsTAAALEwEAmpwYAAAB40lEQVR4nO2ZX0vCUBjGd+XcvBV0YmwH2uafTIuKPkNdVCCE1k1140VafQ3rc0SUiNR9buCnCLowCqEQstsu3thZQdimE8/cRueB92Ln4pznd95nYztjGCoqKioq0gI9PAca2wCN/QCdBU9Lwx6a0Ampk5jve25c/wPShzaXHA9g7LzXZnXbunYC4H1sdNsuDBxEyAdGdfv63wAvTR4qRQHSqgQIIaKVViU43Bbg4TLiDkCvxcNSTiRuHA3VYkaE5yZPHuB4N44XONgS4PWWIx6NtzsOjnYEvEalGCcPUFgwd3/U7kxbvRaP18hlRPIA8ryZ+8/7sKs3KfqOku8B6tUoZFMSnFejwQRQZHM+VZaCCfD7yQMUgGAH7LIdmA4oNtkODACyMRZogLpFrAIFoFjEKlAAyOEYzBrAaTR8C6A4jIYvANaXzbfRx6sIEbNWY91GBF+v5F14Gz0tx/Dk5Y2EawD7mwl8XSu58D3w1OBhrWB2wS0AhBCs5kXcCeIAPxBne3HXAE5KMejejP5gmgpguKxu4mnGwEERBTAen9mUCBe1KJExmDWAF8UE+mhRZ9+ddKDpA6NgWRrbGA/QCam+PV7XQvJYAAzR5pLGUbZxGuwD4wPzZ4tD81RUVFRUzAT6AkHmL+dB7lT3AAAAAElFTkSuQmCC;" vertex="1" parent="1">
          <mxGeometry x="990" y="221.69" width="78.6" height="78.6" as="geometry" />
        </mxCell>
        <mxCell id="BNOFNAKZuXbQfmV0z-QA-54" value="" style="shape=image;verticalLabelPosition=bottom;labelBackgroundColor=default;verticalAlign=top;aspect=fixed;imageAspect=0;image=data:image/png,iVBORw0KGgoAAAANSUhEUgAAAIAAAACACAYAAADDPmHLAAAACXBIWXMAAAOwAAADsAEnxA+tAAAAGXRFWHRTb2Z0d2FyZQB3d3cuaW5rc2NhcGUub3Jnm+48GgAAGVVJREFUeJztnXl4VOW9gN/ZJzPZ95AQwg4hgCwKiIKIC0irdaEKtrXWVm31qrVqbW+9ra1XbbUXt1rsolStVkTFfUFBsMi+VSCYhSSE7OssmX25f5yQzJkzmUwmmcwE5n2e8+Q5Z86c78t8v/Mtv+2DOHHixIkTJ06cOGccsmhXYAhIBVRAUvd5GmAAPIAZcAId0ala7DMSBCAFKAamdf+dAOQAo4BsQB3CM5xAM9AINABVwBHgaPff9iGv9QghFgUgCbgAWApcCJQQ+XoeAzZ3H1s4gwUimswBngNMgDeKhx1YD1xEbL4gQ0os/IMXAI8Bc8P5sk6lQCWXkaRRIpPJUMtlODxeAIw2Jy6vly6HO9y6lQL3A++E+4BYJ5oCoAAeB+4MVg+5TMbY1AQmZuiZkK5nUrqe3CQtmQlqsvRqdCpFvwXZXB5aLQ5auuw0dTmo7OiirK2LyvYuytq7cHcLTBBeAm4BrKH/eyODaAmADPgnsCrQh/lJWpaMzWBBQTrzC1JJ1aoiVpEuh5s99Z3sONnB59VtVLR39XXrp8BywBWxykSBaAnA94EXfC8o5DK+OSmHVSWjmDMqNWoVK20189rhel4/Wo/N5fH/+JfAI1GoVsSI1u+8B58xvyQ7iSeWTWNsqi5K1ZHSYnFw36ZSttW0+V6uBQqjVKWIEC0BMAGJp04+uP4cJmckBrk9OlicbmY9tw2XeI6QjFD/0wJ5lMoVKW/+tLsaizPsmXpEcHu8PLWryr/xITTF04ghWj2AHb8fMidRw02zRnNN8ShSNMooVQusLjfvlzXzl301VHZYAt2SCbQF+mAkEjMCcAq1Qs7iogyWjs1kfkEqo5MTIl6ZFouDXSc7+LymjU8qW/rTG8QFYAjoUwD8KUjWMis3pUcPMCFdz6gkDQnK/tf/kkLdHprNdio6LJS3malot3CoyRhs6ReIuAAMASIBSNYpMFoGNgfQqRRk6dVkJqjRKhVolXI0SjkyBH2u0+PF4nDj9Hhoszho7nJgcgxsCZ+gluNye3G6RfOA00oAooUdH/1740vneB/+3hjvhDxtNG0APUdBhtr7y5UF3rp/nOMdla72/zwjcj/L8BMTPYDljXNRK4Wq7C4z8d7udjYd7GR/ZUhq2kEjk0HJGD2XzErlsrlpnD8tBXn3L1N44x7q2x2+t59WPUDMCYAvZpubA5Vd7K80U9lgo7rZRnWTnepmGxa7REvXLxqVnKJsDWOyNRRlaxmbq2X2eD1zJiSSqg+88jjdBSB6660QSNQqOH9aMudPS5Z81mxw0mZyYbW7MVrcOFxejBYXLrcXpUJGolaBWikjNVGJViUnNVFJXpoaWSzYP2OImBaAYGSnqMhOiZyR6EwhXAHIBaYAWWF+P1oayKHgCsJTBXcgeB6dHNrqDI6BCsAk4EngEkZ2Iw6Gvw/y+1uBu4CDQ1CXQTOQRpwN7AKWDfB7ccQsBrYDS6JdEQi9IdXAawgu2HEGjw74F4JlMaqEOgRcgeCO3cu4SZA3OrxSd34O7l7Nn8fjJTbcE6V4/dUQcxeCRjvwB7W3Qukh3yvZwA3A02FXbggIVQDOE51dsAzu/m34pV57AVh7LW3PvN/APVfmh/+8CPHOrnYaOhzii7feB9l54T3w1b8KRy/nE2UBCHUIEKs/Z5w9pJW4f101Vz1cyoFK85A+N1wqG23c8kwF1zxSOrQPnin53TKHtoCBE2oPIO6fI6BNeWdXO+/samfuxERWL87iG2enMy43jK42TBo6HHy0r4NXtraw9SsDEdFAyyXvW9THvZhTBO0tN7O33Mzdf6tiTLaGxSUpLJiSRPFoHVMLdaQnDr7KZpubY7VWjpywsKfcxNavDJSePO08vkMi5gTAl5pmOy9ububFzc0913JSVRRmachOVZOdoiInVUWyTvANSPMRDqPFjdvjpcvmocXgpLHTQbPBSV2rg9pW+7D/L7FKTAjAK1fP5vkDJ9hS1YZbMu0W09TppKnTGdH6yIB5BWncMqeQn358lE5bZMuLJjEhALNzk5n3jRk0dzl4v7yJT4+3sr/BgMM9cItfuCjkMmbmJLOkKINvTs4ZFle0WCAmBOAU2Xo1N541mhvPGo3V5eZgo5FDjUYON5uoMVipM1ox2AcfmKNXKyhISqAwNYGSrCSm5yQxOy+FJHVM/RzDQsz+xwlKBQsK0lhQkCa6bnK4qDXYqDNaabM6sbs92FxuzA43TrcHk8OFXqVEpZCRrFGiVshJUCpI1aooSNZSkKyNaKjZSCNmBaAvktRKirMSKc6KvUCSkUjcqHOGExeAM5yYEIDIu33G6YuYEIDXjtRHuwoB+aii5bTWAUCMTAJ/83kZe+sN3H52ERMz9NGuDrUGK2v31bD+SEO0qxJxYkIAAN4ra+L9sibmjkrliik5XDg2kxy9ZtjKb7c62VrdxttfN/JlbUe/GsmwsNv8r6i6j6h1MzEjACDMBfbUd7KnvhP4mnFpOublpzE7L7knLjCUnED9YXd7qGzvoqLdwsFGAztPdlLWZh7auUh9LRzYAeVH4XgZNJwMJAALARtC7sIyBJe7HcBnwIACFsMlpgTAn+MdFo53WHj1cB0g6OhHJWnJTdSQqVOTrdeQoVOhVsjRq5Qo5TI0Cjl2tweP14vJ4cLl8dJqcXQniXLQ1GWnzmiLzBve2gSfvQeffwh1J0L9lhzI7z5O+QlagY8QklO9A0QseUJMCMBHD05jzdv1bDrQEdQO7wXqTDbqTJI3achZWJzMPVfmc9OT5bSb+1E/11TChnXw709Frm6DIAG4svuoAtYg5FB0BPtSOMSEACwqSeGis1KpbbXzr22tvLu7nd1lJlzu4VsgymUwa3wiK+amce2iLCbnC8agoL4vhg54eS1sehs8/RuukhMUZCT2qqFNNjed3dFMQRgLPIXgSn4f8Eb//03oxIQAnGJ0poZ7r8rn3qvyMVrcfFlqZE+FmYPHuyivt1LdFF5MoD9atZwxWRrG5WqZPT6RORMSOXdqEpnJA7AR7Pgcnn1EEIIAJKjlXDgtjYumpTF7bBIlBXoStdL5i8vtpbbdzqEaM9vLDHz0n3bKGgJmJhkHbABeB24DWkKvbN/ElAD4kqxTsGxOGsvmiI1BzQYnNc12qptsdHS56DS7sLu8WO0eTFY3LrcXuQxS9Eq0KhlatZwUvZJknYKibC1FORry0gaR5sftguceg/dfD/jxnLFJ3HzhKFbOy0Kv6X/CqlTIGJulZWyWlm/NzeSx1eP5zwkzf9vSwD+/bMJskwwpKxEmj1cCu8P/R7rLH+wDhptTMYFnT4ySMejR+6GqXHJ5+mg9v1s5luUzB58+YEZhIk/dMJFfX13E7989wdpP67GLcxaOQogw+j5CvEbYxIQmcETh1/gJajmPXjeOnQ/OGZLG9yUjUcUfVo1n70NzWDgpxf9jLUK21e8NpowR1wPEEhNzE3jltmJmFPbfG7k9Xmrb7LR3ObE6PCgVMlIShJD1lITgzTApT8envzyL371VzSPv1PgGqygQMq7aCbMniAtAmCyclMIbd5WQ1kdiCYCKJivv7m/l3f1t7K40+uca6mF0hobFU1K5Zl4WS6elB0yWIZfBr68qYvpoPd9fe8x3SJAjCEE1giJpQERHAGTikcfm8KAOI+tXpHF7JAmiALigOJWNP51OgjrwCLqvysRv36rmo0Oh7TtR22bn5e1NvLy9iYxEFXctL+D2SwrQBXj+VWdnkaRVcPUTR3yFIAF4E5jBALOXRGcOkJUjOr3vhSocrtgyCnu88Ot/npBkL5tdlMSGO0sCNn57l4vr/3SUhQ/uD7nx/WkzO3ng9SqK793Fv3Y0B7zn4unpvHDLlJ48Rt2MQlAWDYhQX7urgek9Z/MXC8Gh4dJlgv/s7TndX9nFhu2t6DRyphToUCmiFzDjcHl548s2blhTxhtfil+mrCQVH98/k6wA+oKdFUaW/+EQOyuMfT5bm5JK8qh8MsZNQJ+RiUwux+1w4A2gPTTb3Gzc20qz0cnSkjSUfq1dnK/H64Vtxwyiy8BhhI0uQiLUX/qfwOqeszv/B5Z+I9QypDgdcN8PofKY5KNknYJvzc9gxdnpLJqWTNYwpIHp7HLx76NGPtjTwYbtrX2qfjfeXRJwpv/u/lZWPXM04HCRU1zChMVLGbtwEcl50gBYj8tJ3cH9VG3fSvmWT7GbpAK0YGIy790zQ6JI8njh0kcPse1Yp+/lKgRBCElfHh0BADAZ4KF7/EOmxZWTwbRCHQumJFNcqKN4dAJTCnSMSg8/2VOzwUlprYXS7tCw3WUmDh7vPx3d6nNzeOGWKZLrnx7u4Ko1h/3X6WSMHc/8H93GmHnnhlw3u8nE/ldf5KuN63HZxdFLS4rTePtnJWiU4qGnosnK3F/txeoQlX8XQiaXfomeAIBgOHnrJVi/DmwB1Z8BUSpkZKeoyOoJDVMikyFK9Wa0uHB7hK60xeCkqUMIDQtnrqFTyzn62DzyUsUaxK8bLMz/n31YxD8+M6++jnNvvQOZNBg0JNqrj/PhA/diqK8TXV+1IJt1t06V3P/A61X84T2R9bEGIZ9Dv0EU0RWAUxg7BTPqJxsHYkYdNn522Wgevnac6JrL7eWChw6w53hvviiZTM7iu++n+LLLB12mzWjgwwfuo+GwuId89fZirjpbnJuro8vF5J/twmAVtfe1CLufBSU6k0B/NFqYOgNWrIQZcyElDVwu6GwLkKIjQowZD0uWw7zFcKhXxa5UyHjxx1NJ9lPWPP5BLS9vbxJdW3DzT5hx5beHpDpKjZZx5y3m+BdbRPOCbcc6uWFRLjp1b9MlqOU0GZ3srhTNHzQIaWiClzMktR0qZDIomS0cABYzHDsMJyqhtgpOHBc8a4ydwZ8TjJQ0yMiCwvFQNEFo+HGTIa17cvfa86Lbl8/MoCBd7JpmtrlZ80Gt6NrEpZcy69rvhl+vAGiSkrnsocfZ8OMbcdqE8PUWo5NnN9XxwJVFontvXpLH0x+LMtBdipDTKeiPFVsC4I8uEWbPFw5f3C7o7ABDuzCZNHd3w3absMJABolJQkIGnR40CUKjp2WAsp9Vxb7totNrzpGmQly3rZH2rt7uVqXTcd5P7grnP+yXtMIiZq5cxd6XegXzuc/quWdFoUgXMSlPR0mBnsMnezzJNAh7Mm4M9vzYFoC+UCiFBs0IN09lH5hNUHak51Qug2Uz0yW3rf1MPDk7a+VqElLTJPcNFbO+/R2OvPsW1k7B96DF5GTD7ha+e55YobZiVoavAICQki6oAMStgb7UHhd59hTn60nVid+R6hYb5Y292URkcjnTr7gmotVS6XRMuXSF6Nqmr6SaxnMnSiyG8/p7dlwAfPFbgcwemyS55bMjYg+gvJKZaFMinz6x6NzzRedbSjsl8+M50vpO7O+5cQHwpV4sAOOypUmq9h4XpwkeMz90Rc9gyC2ejiaxt4GbDQ5qWsXKvqxkFckJooVdJhB0bApvDrDuaXhtsClzYxA//75RadLAlCaj2DE3kHo3EsjkcpJy87BX9Apgk9FBUZZYSPPTNRjrREq1dIRE1QEJTwAMHX06Q55OJAbw6Ws2iAVAP9QT0SDoMzJprSjrOW8xSgOKAtQ5qLdKfAgIgkIuVZSa7WLLnUo3fNvdqnXiuEmT1GEUtVLSpEHj6+ICEIROi1SV7quBA7B2hGf3DwdLu9g8naiRNl+XXSIUQUPMwhoC7kmZxSXaMBNFxzDPmg6z0XK857yzSyoAOSlig1BXW2vE69VTlp8AZKdI3dsDCG3Q/LthCUC6XMNo5emXo2eySrycazBIE0pOykvgA5+tHloryph88fJIVw272YSxQayAmpQrHn6cbi8n20V1dgFBky/EhwAf/IV6f5X05Zk/QZziv2r7tojW6RQndu/A4+p9uyfl6SQOqZVNVv8ws5P0E3oeFwAfxijEipQD1SaJo8iiKakofVzWjA11opl5pKj8YovofOk06fJ+R7nEm6jfbWniAuDDeFUKGfLedbXJ5ubQCXEvkJGo4uISsX1gz4t/i2i92o5XUPXFVtG1a+dnS+7bWipZmu/s79mhCoBo8WvxDj5bZywiA+ZrxAaW9TulMZg3XyjeMKJq+zaJ48ZQsuOvf8Lr7bVRzChMlAxFDpeXD6WeyJv7e3aok8Aq35MXzccoVqWTKR++fP7DxURVKlhres5f29nMw9eOE7lgL5+ZwVljEjlY09s7bP79b7nm2RfQJA3tNkCH33mTE7t3iK794vJCiU/kh4fa/FcAdcBe+iFUl7DpwKEB3H9a8eZdJayYJfYG3l5mYOnDB0UGmfxZc/nmo08gVw6Nlb3u0H7eve8O0eRv0ZRUPrl/pkQALn5E4h28Bri7vzJCdQlrRkhhMifE+08rjtVb+OGSUaIfvTBDS5vZJfIJNDXW01R6mKL556HUDC7BVdX2rXz84C9xO3pH3+QEBW/dPV2UZAKEyd+Db1b7XvICNxJClNBA4rE+ASYD0wbwndOCJoODqfl6ivPFqtglxalsPtJJXUfv2tvYUMfxLz4nt3g6+syB2wncTid7X3qeL556HLezdwUnl8ELt0yVRAl7vXDD2lJq20Tr/48Qsor0Szhd+jcR4tKL8dkBPIIkImyxBoBOpSBDF36xRpvTP+V8B4GtZWn4mFIL0jXsfWiuZO3dZnay9OGDlNb5ubXLZExccjHnfP9HpOT3rzX1uN1UbNnErufXYmpq9H8Uf7x+ArddLLU8vrC1kVuf/9r/8nxCDBQdCWP6agS3dAAun5zDmkvD74Se3FXFU7tEc9oHgd8EuLUE2I+Qxw+AlfOyePknxZIbW01Orlxz2N8rt4esiZMZu3ARWZOmkpidgy4tHZfdjrmlGVNTAyd276Bm15cBo4KUChlP3zCRHyyWblVX3WLjnAf2+buDv4ngxR0SI9MncHg4jBBdc8+pC6/vamFJcQM3XSBujMwkFZt+MZOfv1rJc5vrJZ46LeVf01IueUv7JT9dw4u3TuW8yRJXL6wOD9c9c8S/8U3AnQMpI64ICs6DCAkce7jjxXLe3ic1AGlVcp783kQ+uX8mJQWDS3erVsr4r0sLOPjw2QEb3+X28t0/l3KgWqKqvocB7k4eF4DgmIFrgJ4B3uX28t1nSwM6ZYKwTNvz0FzW3zGNC6el+YdwByU7Rc2dywoofWwej68e7+/eBQgKnxvWlvLufokQvg78JfTSBOJDQP98BfwIeJnuOZPd5eHKNYd5bPV4fnyRdGIml8EVczK5Yk4mTQYHm492srPCQFmDlcZOB1aHYLPPTFIxJlNLyWg9i6akMm98ssjO4E+nxcV1Tx9ly1HJnHUf8INw/rm4AITGKwi+dT37/DrdXu56qYKDNWb+7zsT+kwJl5OiZtWCbFYtkOruB8LuSiPfebZU4ggKlAMr6Mfu3xfxISB0nkEYY0VTvHXbGplx/x7e2D0keRslmGxu7n2lkiX/ezBQ45ciBH80Sb8ZGvEeYGD8EagF1iHk5QHgZLud1X86yqLPUrlrWQHLZqYH9CccCEarm79srueJD2tpMQU06W8Bvg0MyiUpLgADZz2CcexVYLzvB9uOdbLtWCejMzT8YHEel8/JpDhfH/JE0Ob0sO1YJxt2tbBhd0sg/z4QeqAnEPIGD9osG01FkBxBYfENhARHfZGLoJQBIEunZlJG+O5oJ4xWag2ijaKPdx990QZsQkjd7msW1wOPALcT5HdM1ytZMCmFxVNS+d75uRJN4s4KI2/uaeFAtZl9Vaa+Gv0U1cBNhGDmjXUygX8jSPNIOY4iJGz2Zy6CnaTfZ8wqSvTa1i322v8hHB//fKZXLgupbAPwC3yGnaEiGpNAGcKadWEUyh4MU4EPkTbCXuAShFDsNwnig3eg2kyjT2DJB4fagu6PgGDT/wUwBqG3GfI97qMhAMsRfqyRyCTgh318thVhSCtEsMNvIkCmLodPMqk+MofWAH8DLup+1qP0k+RhMERjErhMdFZ8Fnz7RlDEXqZQvF74eCNs/8z36mX46AMC0IjgjLEGobcoR/ClCIV7gcfDqGnYREMAckVnK1bC7AVRqEaIJKf6C4DULNc3VkCUQuyB16tI6s7396XUi7fvLJMRIhoCIB52YvHN90Vav1CHTQXCykHkDPDazsDpX7v5DYJad1+IZQyauCYwcvwMWDXA7+QhTCSHbcPEaAiAeKHrjPGtWR2SjbpCVb7cHGaJhfjPkyJINIYAcX619X8X0sGFmVUzoni98PlH/ldDyWSpQNjtCwCVTM5/p8ztU1v0me0k22yiEL4hTMIYnGgIwEaE7lGgthr+/PsoVCNs3grhHgU+vasaBdfqJ/R5c7Pb6i8Akc+Q3U00Xrt/M8iNjqLIDnz8E08HotXv3ogwQx5JfApczhAYYGKJaFkDrQi7XT2J4GY+kLX1cNOOoNUb8QaYQETbHDysa944UmJw6h1nOIkLwBlOXADOcOICcIYTF4AznLgAnOHEBeAMJy4AZzhxATjDibYm8HTF1X0oAWxeF7/q2IWij+1ODzkkwT2h76IZJ2bZSfgxCMOzDUmciLIMwftpoI3/YTQqGycyXI8QWhZq468HpClBIshISBI10klA2L4tWM44G0JOoqog98SJEydOnDhx4sSJMzT8P1NMAaySyaWSAAAAAElFTkSuQmCC;" vertex="1" parent="1">
          <mxGeometry x="1020" y="395" width="90" height="90" as="geometry" />
        </mxCell>
        <mxCell id="BNOFNAKZuXbQfmV0z-QA-55" value="&lt;font style=&quot;font-size: 15px;&quot;&gt;BI &amp;amp; Reporting&lt;/font&gt;" style="text;html=1;align=center;verticalAlign=middle;whiteSpace=wrap;rounded=0;" vertex="1" parent="1">
          <mxGeometry x="1000" y="300.29" width="120" height="30" as="geometry" />
        </mxCell>
        <mxCell id="BNOFNAKZuXbQfmV0z-QA-57" value="&lt;span style=&quot;font-size: 15px;&quot;&gt;Machine Learning&lt;/span&gt;" style="text;html=1;align=center;verticalAlign=middle;whiteSpace=wrap;rounded=0;" vertex="1" parent="1">
          <mxGeometry x="992.5" y="690" width="135" height="30" as="geometry" />
        </mxCell>
        <mxCell id="BNOFNAKZuXbQfmV0z-QA-59" value="&lt;font style=&quot;font-size: 15px;&quot;&gt;Ad-Hoc&lt;br&gt;SQL Queries&lt;/font&gt;" style="text;html=1;align=center;verticalAlign=middle;whiteSpace=wrap;rounded=0;" vertex="1" parent="1">
          <mxGeometry x="1010" y="500" width="120" height="30" as="geometry" />
        </mxCell>
        <mxCell id="BNOFNAKZuXbQfmV0z-QA-61" value="" style="endArrow=none;html=1;rounded=0;" edge="1" parent="1">
          <mxGeometry width="50" height="50" relative="1" as="geometry">
            <mxPoint x="62.5" y="370" as="sourcePoint" />
            <mxPoint x="62.5" y="370" as="targetPoint" />
            <Array as="points">
              <mxPoint x="207.5" y="370" />
            </Array>
          </mxGeometry>
        </mxCell>
        <mxCell id="BNOFNAKZuXbQfmV0z-QA-63" value="" style="endArrow=none;html=1;rounded=0;fillColor=#ffe6cc;strokeColor=#d79b00;" edge="1" parent="1">
          <mxGeometry width="50" height="50" relative="1" as="geometry">
            <mxPoint x="307.5" y="370" as="sourcePoint" />
            <mxPoint x="307.5" y="370" as="targetPoint" />
            <Array as="points">
              <mxPoint x="452.5" y="370" />
              <mxPoint x="395" y="370" />
            </Array>
          </mxGeometry>
        </mxCell>
        <mxCell id="BNOFNAKZuXbQfmV0z-QA-64" value="" style="endArrow=none;html=1;rounded=0;fillColor=#f5f5f5;strokeColor=#666666;" edge="1" parent="1">
          <mxGeometry width="50" height="50" relative="1" as="geometry">
            <mxPoint x="512.5" y="370" as="sourcePoint" />
            <mxPoint x="512.5" y="370" as="targetPoint" />
            <Array as="points">
              <mxPoint x="657.5" y="370" />
              <mxPoint x="600" y="370" />
            </Array>
          </mxGeometry>
        </mxCell>
        <mxCell id="BNOFNAKZuXbQfmV0z-QA-65" value="" style="endArrow=none;html=1;rounded=0;fillColor=#fff2cc;strokeColor=#d6b656;" edge="1" parent="1">
          <mxGeometry width="50" height="50" relative="1" as="geometry">
            <mxPoint x="737.5" y="370" as="sourcePoint" />
            <mxPoint x="737.5" y="370" as="targetPoint" />
            <Array as="points">
              <mxPoint x="882.5" y="370" />
              <mxPoint x="825" y="370" />
            </Array>
          </mxGeometry>
        </mxCell>
        <mxCell id="BNOFNAKZuXbQfmV0z-QA-66" value="" style="shape=image;verticalLabelPosition=bottom;labelBackgroundColor=default;verticalAlign=top;aspect=fixed;imageAspect=0;image=data:image/png,iVBORw0KGgoAAAANSUhEUgAAAIAAAACACAYAAADDPmHLAAAABHNCSVQICAgIfAhkiAAAAAlwSFlzAAADsQAAA7EB9YPtSQAAABl0RVh0U29mdHdhcmUAd3d3Lmlua3NjYXBlLm9yZ5vuPBoAACAASURBVHic7Z13fFVF+v8/z8yccxNIAoSU24AAEZFIE6SFQIDQm6CgLioqigXLuq51f6u4rq6rfgF1WcWOqOvSVJpIC1W6ihCKoQnJvTeEXkJu7j3z/P5IwoaQBAsBQ+779eIFnKnPneecec4zz5kBQoQIESJEiBAhQoQIESJEiBAhQoQIESJEiOrHnj0H7J7Dh+tf6n5cDMSl7sDviYyMjMTdu3e/JqV/tygo+OOl7s/FgC51B34PrNm4sUOYVH8xTKO/aZh+wzQ2mobZwOGwNyAifan7V5lU6yfAkiVLWq5YtWoqBa3VGuzQFh7R2qp36uTJ7lprW25ubqdL3cfKRl3qDlwKvvhibnPTpl7SGn20xZ9DcatrWrXaVDLP/v37P9Va3wlg5SXq5kWhWinABx98UDsiIvI5RvB+1mKTZaFTWpfOa8vJPlFrXn/8+PHHoqKiDl3Ujl5Eqo0N8N57H9xumOY/TdOIMwyVbRo2aRjGJtM01xqGucUwxI7IyMjdSUlJJ4vLZGVlvWia5rG4uLh/Xsq+VyaXvQK8NGlSrVqa31WGOdQ01MuGzWxhKrOFaaouhmE0MGy2bqYyuhum0c40TNMwjALTNA8ZhnnYZjPylTLj4uNjryAi/6WWpTK4rI3Af7z6ahtbXv5GS/MN2tL3jBx521NsWbdoaL+l+UshxNa07t2f7dIlJeV4eHh0MIhOGvygZekZGnq3ZVmW1lb0oUOHRl9qWSqLy/YJ8MHYsWGnjh+fYcXG9RERkTtMU7W955578gDgk+nTrwgXKt00jWNhYbaBaWlpu0uXz8zMjFLKfM4w1QjTMAq01lfa7fZTF1+SyuWyVQAASE9NVacMvCQl3Xg6ziWtutGbyDT/HWjV5oRSZjPTZr5sGqbfMMyRaWnd5gDAhg0bahk22+02w3zMMNQKm832mFLmfaap8qKjo1+41DJdaC5rBShmUfI1KZLEVEi5LRgVJZQVbKrDaxrsdIezs144OV0wHM7PVc1In81mpEnDNk2JsPebN79iFwBkZGSYdrt9oVJqVK1atXZeankuJNVCAQBgZXJrpyXVNIAmdl2+7tOV3ToMIvCXDHiFEFECHK5rRh4TdvtJqhm5TWRufSesW7/8iLTeubbY2KBSKs5ms90XFRU1mIj4Ustzoag2CgAAC9Pa1AoPqFlC4JNO6Wvf/qZbh6+IsLbjkjVjVyYnR6qwYD2CaEQCrQnoSFL2AFiJyNrHVVz8CZvDdbzAmz3ZvzNzccHx4LZOq1efvtQy/VaqlQIAwNe9WtSMDNZYQIzXQDgtJP2j/cLVV5fOx2Mhvl3d6c8EegKABeAbEAwAkSBqAGY7gH0EbGbGZmbawEQb2n69wnuxZfotVDsFAIDlfVNizYLgYsG4F5IWC+LWbRes3l6cvqFXx6ZCiHeJ6AhJ615oOUlqerr5/BU/FOdJT01VdWyBKyGoPQEdNNAejCQAPgZvAHg5WVjSKvmbH2gsfrcLStVSAQBgQ1rH5iCaAaLTYJ7cduE34wDguz6d7wdhLBEebTVv5RQA+L5fyvuSaE7zuctnllff5v5dOlnMrwDsIKYozRwOoAYzHwSQzuCvhN/8vPXSpUcvjoQ/j8vaEVQRbRet3kxE7xChhZCUymMhvu/X+S0i/MWQ6Fk8+ACgiA4QUWJZ9WQMSk3cMqDLLABTBPCOZmovgA1m5JE6UoiuJGkiiOwEekvbAr4NvTp9sb5Xp5s29WpR86IJWwHVajGoNLtqOcclnvCOJELKpjWdPyRBQ4mo49Vzlm8umY+IDpBA05LXMoYlmfDHPk3MDxLE+PBTGN5w6dL8rQO69Asy70uallEAYHnRn7EbBrapIQts3ZjoD5r5vQKOCKzv2eEtEsZrl9JuqNYKMHzaNGtTv5RnAUwnwq1E+FpLq6B0PiLkEmhA8f+3Dkm9WhRgCginhGFc22TGot3/y0t9BLCpdB1tZ2/MAzAXwNyVg5Ijw0/z9RbErWwFd63t0ekTFtbLHRauzawkUcul2k4BxbSYt2ImgJ+ICETUW7HavnVg14ytg7o8nzGoS2sAICEOCFE4BWQO6XanYlorBKZfacZ2LTn4DBAEDTJILK6ozc6zVp0I6uBsQfQREX4g4rugxZbV3Tq8sGFgmxqVKnApqq0RWJLN/bq+SJJvJ2AyEfUhUMtCfQAItIeINgI8lEi8C/CN0Lg58YslX5WuZ8fgHimANeXKL5cmlNXO9kHJkfkBGqaZRwDowkynmHmuxfwDwA+w5nDWOK6hH0xOXze3suUGQk8AAICQNI9ASJq9/Klms5a1ZmW5BOEOAfovEdUiwg2CSBDxaEG0HArHyqxH6AdIiI9LX8/o3zVly4AukwOW8AqivwsSPwqIAWFRR+JOFBgjBWEwNO7TippAYi6R+GJlt/aTv74IhmLoCQBgU69eNY0wf26zWcvOevzuHJaaSJaYT0SRRIgDUPhYKOQ7QD+fMG3J5wCwa0iPJiDezFInJU5bujNj2DBTBQ7cqDU9zMz1NfgTzTS1edtla0v6Bb7tnfycZiS0XbBqZPG1b9I6tmZLf8aMAIng4OQlG3dVluwhBShi26Cue7SNmidNW3oSAHZdn9oWEHMJYhkJNogpFxLjhcZQEI0GUJ/BAONrjeDtYPkWmC1E6hGBYzQawGPM+getxXvadmBO0VvBWXzXNyVZa/0fQ1HLFnNXHimZtjI5ORJG4E1m9GStB3ZZsWFdZcgdUoAitg9K/c6wqdTG0xYdy7y+W2/BNJ2IvhCsHoe0dklNLevNWJgJAHtuTw0z89QTmuhJZoQx+BAz6rLmtzWoO7O1mFiMa/z54h/La29DWlotqU5/rzU91GbBytnl5VuR2m4sazyqCf1Sl61bcaHlDilAEdsGp64hDvSUynYdAe8R8UeNmncd/dPWlX8i4NoGUxfdWDL/nttTw4x8YzIzhjMDzAzNnA9N3RrOXLTmfO1t6tv5E82sW89fdev58q7oeu1DmvF3i7lv9xUbVv0WOUsTMgKLICCGhO1RZp5MoHcazUi/G2PHMhijWOClknl9I/o1t/nNdcTUi0GLii4XAAhj4vmZQ7oNrqitTf1S7gJRR4QZD/6cvqUsW/86gBcFMCu9Y5um5y3wCwgpAApX/gDYAf0sAeMbzVz8AAG8Z2j3FAb/lPDZou+Awvf8rJt6PRK0gus0kEFEgwjcjojfDkiRCMaHAKKIaMbOId1uK6utjL5dWhPwChEPa/3Fz18X6Lp8/UsgTGdJc+d37Bh9QQRHNfcEFrP1u5SmglGTiP5xxefpTxdf1yTuklx49++7qadzv8aHYG5MQg9BMG9ZkCJWM/Omk6jzYNK0aQUA7th5Q/epYHzAwAfbB6fmNf1y6fTi+r67LrW2DljTwPRki7krNpbXn/TUVGWDP5Ghr7aYGxJzA4vRgDUngtHAQMGdAF69ELKHbAAAGYO63ClA7xHhB4KY1MSMmbQvzxsVsJkzEmcu6b7r+rTrBfG/AJps84f/zTl7dt6+YT3f1eC0YFC0S/x8wYGS9e0allbfCuj5zLo+s+zUdNbiHxigjP5dPrcIP7Wcs/zhM20PSzJPH6vTGtDtg5a+FqCrmfkqZvYwY5MGb2KLd2pBP1mBwL5afuFpu3Fj4ELJHlIAABkDuswioquIkFjo/qMFBF4gCD5AdpfEV7EU9zSetmgzAOwZ1v12MP0LJDo3nLbw+zLrHNY7WhT4F4FZnrKfbBvmiXhEMycX+M3bTON0J4vRjTVSmNBas/ZoppVgvZ602CSEf1PbRRvLdDZdaKq9Amwb0qOuFQj8aLNqOoMqvwOgZ5KgaBDnCcgdBLyT2KrLJBo7VgPAziGpVxOJNUR8Z6MZ6VMrqnvnkE5x/qCxnLX+lkHDmDmDgabMvE0zr2CNVTKoV7Zasjr74kh7LtXeBijwF9wJ4qVXfPWVf8fA1AwL/B0YPcCkLfDfr5qVPhNfLAFQ6Mtn0DRAj288Y2m5g79tSI+62goM9gcxlJkTGCQZ/CY0zT9N/pUdvlp7/KIJeB6qtQJ8M6xjOJ/kP4HFyM0DOg8p0PpNIsSD8AxpvVtIGgjgTBQQkfG2Zt7RpGXqs5i59Ky6tg5NcSCghkBYQzkYbAdgJZjnkZB/vHrW0t9tKHm1ngI29kp+RAgaQ0RriDCi6Md4ucW8FU9kDEsykR+z57TjZELbtzcGtg7uMoaY7iMEOzadteoEAGy7LjUBmoeyksOlsiVoIWdZJ47NOF4juLzTtKoRMVxtFWBD7xQHgbcRWBJRBAgQhH+3mLfyAQIYADb377JSS2uUZBVF4C+1VClsaUOCh0KKYcIw60e2Tzka3f+6euFNkwwAvYlowSUW7RdRbacAra1xRFhITFtJ8DPE+KhFx1UP0jyc+ejDAu+lALXXQj8nwDsBniOVctVo2+Fonb6DHZEtWikh1UkAnwHoBiD2kgn0K6mWCrCmR6ebmDklKNDCYOoA5um7arnuvKbEMm16amoYc1AANBFCCaN1WzOqZ397RIvWQhrGHqXUX4VUy4hoLwAw839RBRWg2k0Bq7p3aiygV5PgocQiCYQeEXWO31K8XLuuV8dOhi38LtZ6uHLV80f0G1wrol0nKW02SCnvl1J2llIOkVLmKKUmCCEmEVE+M48FoIjo/11aCX8Z1UoBvu7VombNgvClRDyNSKQSI5zzqZ8WQhkRdL80zAcZiLUlp8qa3XtK0+nOkFK+p5S6WQhxRd26desSkT5x4kSsYRh/llKOkVJmEdFwFE4BVxDRA5dazl9CtZkCGBDL/WFTGPokIB4n8E4w3YT4qBfl6dP3Ij5eqpQeRliH5BMqPPwzIeV79erVWwsAPl9OKhHlFm8ZFxkZmQvgidOnT79JRFOklMsAfIIquLhWbRRgaedrxwnm6zRABM7lGjWzydLb1FXNTaNzqjDqNYBS8gl/IDCxaWLiWRtBMHMEs3VOpG94ePheZk5FoRE4BsBbF0eaC0e1UIBFydf+jcEPa10Y00eGqkUt2lwne/Q8JevUBUm5G+Atmrlzy5YtXy5dnsEulLNdHBFZzPwGgEEIPQF+fyzocM3TYP1XBkC28CM6rXcYru3wE9Wo8QaT8T0zVrAW9xZYaqctjLdv3b79vmZNm75ZXD4zM9MGZrff719fum6/399UCPECM3ctDB2vejbVZa0A89u3fhTAC1rKXO6W5keHlPXSDH+je1pqOgCsXr1mCpjebdOm5QoA2Lx582hoMWX79syDTZteMQ0ADKNGM2b+oV69emc8e3l5eS7LssZqrQcKIV4jotsBjAbgvPhS/jYuWwWY277VGA36c7B9542ie/fdMMw/9evXN6s4fcWKFS215nb5+TXaFF9r3rz5f7du3WoH9Mc//rgzukmTxElCWK20lqsA4OjRo3WCQf1EQUHBzUKIN8PCwhKJ6CQAMLMAUOU2lLwsFWBOm1YjYfHV+Xff85CId0yVwvjjwBKDDwDMeBXQt3fr9r+NIQGgWbNmr23fvt0D8Ae7du3uaVlsSYnPvV7vY35/wV1SqvcLCgqS4uLiziqnta4lhNh/MeS7kFQ5o+V8fHnN1S20wNb+GzbdZ8XGFjAYQHBfyTzp6ctGMmNVcnLy6rLqaNq06TSAWzC4CYiHg/TfNABmfU1MTPQ/Sw9+EXUBHL7wElUul90TYNC3WzYXL+aQ1j4mAa1FHIB9ALBo0aJGGnoEtO5XXh2bt29vy8zPgvkgmA+AWUHrH+0uV7n7BBKRG0CV2h4GuEyeAMxMzEwAUDz4AOD3+39kZotZpwFAenq6srR+C1rf161bt2DpOjZu3NRn06bNs4VlPaK1HhsMBm8BsJKIegH4k9frnZGbm3tNOX2oB6DcD0F+r1S515bSjHv33Wh3VNSx4cOHW2WlT5/5+XJDCpff7786IiLqSSHkkT59ek4oTl+3bp1da32jlPIWKeVym832WlJS0j4A2LFj56NKkbdx48afMjP5fL6RQsjnpVQ7pZQziXhu7dq1dwNAMBjcqZQqcxeR3zNVWgHGvfFGc5sQwTFjxmwrL8/06Z/fIqWYopT8RgipatQIS7YsqxGR6qqUuElKWVcI9a5pyilt27Y9E4iZmZlpY+ZV4eHhKSVfAffv3x8eFhY2Rkr1kJSynpTyqDTUNimEMA2jQ2XLfKGpsjbA+PHjE4TGdWMeHPN8Rfm0DnwtpJmjmTsReFe+v+CAlPKIEJivtXi2a9fkMj18gUDgXinl9JKDDwBF/3+VmSccPXp0kJRiILQeBKI5F1C8i0aVVICxY8cKS2NKwBTDSqdNnDg1IiKiIEUo6q6k0QMkmjGzYmYwc0MLnNa3Z1p6RfWvycyM4oLA6GAw2L6CbBYRHWPm2sxcS2tdKV/vVjZVUgHCatS4hTXXfXzMGN/YsWPNmBh7BympuzRUDynyGjHkBoC+AVsPg5HHLNZr5umC+QbB/DgzL61ou9cap0+Ph5TvlTw8opjMzExbZGTkLYcOHfqTlLIGM78FoLYQ4oJ+tHmxqJIKwBr3QbLxf+MmfKWkjGbmTcy0CtoaNequUWdZ4p/9d9r7grE5WOC/yQiv+Tw0P7VgwYIJzPzHspTgu+++G6w1tzp06MA9Ja9nZmZGhYWF3SOEfJiZtjDzk7Vr155LRPrkyVO3GIaxuXRdVYEqZwSOGzcuPN8fOCGlnG0a8o5HHnmk3A8sP/vssyaA2CyEGjB8+NCFzEzz5s1/VQjxJyHUO5blf7Bfv35nTgJZs2aNWyljrWGogS1btvwWALZu3eowDONhqdSNQsqZkujNevXqnQnzPnXqlEMzT46MiOhVuZJXDlXOD2BZViQASYCsaPCZmQKWfluDpw0fPnQhABAR9+/f91FmfgSk7zBtYd8sW7bsKgBIT0+PAInZAL/VsmXLbzdt2nTlli1b3iEhZgDIDLPZkhLq13+05OADQDAYTGOtK7Qpfs9UuSmgQYMGh3bu2pOnwVdUlO/DKVPuUUI2DfiN60un9evXZ8L8+fM3aSE+sjRvWr58xRtSyiZg3svMGzZu/O5zACe0lm9e3bRpme7iYrTWvQ3DqLKHSlW5KQAAXvzHPz8johulMFo//vgj53yc+fb773cyhFokhbzhtttGzCuvngULFjiVMlZJKROklJBSZksppthstvEtW7Y8UF65Yvbs2RNWq1atNdHR0a1+q0yXiio3BQAAQT/NzKc0rHN22Jg0aVJ90pjJwP+VN/izZ89vOW/e/DeIaInWPE9r/oSZ85g5ihm3BIPBfhkZGeb5+lGjRmQfFG4FW2Wpkk8AAHjxpZfuESTflErc9tijj34MAK+//o7bZuN0IeSuWrUi+5d0D0+dOrWZlMZwKUV3IYxtSsn/njx5bNnw4cOt9PRla4QQi4TA/xk22wNCiAeUlIYUYoE0jHkCWNasWbOfSvfhwIED/5FSvl+3bt2FF1P2C0mVVQAAeOmll8dIpV6TQoyDqSabQnwppTwVqFkzJTIQEJCyuxKil5CqoRJyhxBqTkxM7SUlF4IWL17ciYScReDEbt26HQWAqVOnyoZXXJFiCjGYpOyqpLxaSnlaCrFVKbVZSpkhpdwupfxXXFzcVUQULL+Xv2+qtAIAwD9ffXWoEmqSlDJGSmkpKd6XUgohhRZKrbMptWTEiBHnHAsHFA507TrR66VQ43v0SJ1SVh6gcK4PBoOtiGRbKWmAlLK3lBJCiHEOh+PRypOu8qnyCgAAEyZMiNegiUqq66VUHinE3ffee3e5xl8x8+bPf04J1bpXr7RBFeVjZrFtW2YPw5CjpZStpKR0KdXdhqFaxcfHn7MzeFXislCAYsb/618dDci/SyW7Cyn+qwQ9O2rUqB1l5Z09e94NUoqXtA5eO2DAgCOl05lZfP/99x2FENdJqboqJdcTGf9p0qTRqr17949USjxSr567ZeVLVblcVgpQzMSJb3cyDLpfSjVESjlLCPXOrbfenF7s+p0588s+ypAfGkr26tu37//OAUpPd5ummSqESJVKJUsp1xtK/efQoUMLS9oNe/bunSuUWtjA7Z5QVvtVictSAYp5//33Y4nUCKXEDUJKlxTyK6VUppDib1KoEULIXMOgNkKotlLJzlLKPCnkV1LSPL/fv6p01BAAZGZmxiqldgBo1LBhw9/V+T+/hstaAUoyefJUl2nydVKJXlKqjlLKOlJKJaXaLJR4g7T+snfv3ud1/mRmZj4lhGrQuHHDey9GvyubaqMAJUlPT1dHjpy8VilKNgx5rRCynZQSSskfiORmw5CbpJR7iCjr2muvzSmeOjIzM6OYsVMI6p6a2tGvtWgmNB3TQgQ8Hk+VXA4mh8PRxhYMZu/NzfUVX4yLi4u3EcXuz8nZ4nbHJgK27KysrErf8yYxMdGWl3ciRQi9Nysr96JurLRo0aK6gGpmGPIqIcSVSslEpaSLSMYrJU0p5TEpJSkls5o0adINAJxOZ2dibgsgP9vrrXIfhgKAEuD1ASVnADgTXWMo8brWuAbAFdpSD0qr4HUAlXZoQTGnT514SQAJlqXGOR3xL3u8OUMBwOVyNRGWVSvfsrbl5uaWFZP/m0lLSzsEYEXRn7OYOnWqbN68ee2AlLUQDJ65EQKBwPdSyh2maVZZR5ACcBCEK+Pj42vm5OScio2NjQCTuzi6WsjgGyxtHgBoEBPjCJhmewDbPR7P9oTYWDszU8CUSYD8xuPxFLhc8V1hkc72+VYACAIglyuuA1miNpRam5WVdfh/dcm2RGpHdnb2jw1iYhxB4FpNeAOMg0TUwel0NhUiYMHSXS2BYBipcFwC33uRS/kQSn36VaSMlaKQF4vCxSCmOYqoPwAYhhhIxLOKM7AlX6NAoLHbbm8XVGo+MTck1pPdDsfQgBJ3BE31tWBxp9Y6wemwL4YWPQjo43LYFwJQTrv9r6zlAxDckq3g6piYmEin05kcNNQcYtEYWk90OxyjA6bZCKAYYmonmNuBOZy0boegrMPMxwRzFDPnX5qf6fKlUAGEmAoqnAKI6QYK6umlMzLxgwCezvZ6xzOJYZroAAAw09wsr/cPQnAiMXZle71PZ/l8TwCc5YqP70OExgTsDWr6TGruGxERESCtn4DQD2R7vRNs+fk3MPjpIiNqt8V4L9vnmwzQsWyf76Nadet+D0Czxi5izrt4P031QAFAdnb29y6HvbHL5XKT1vJUMJgbbp69GsqgWKH0fgDweDz7AOxzOeJTwLwfAEiTi4G9ZwoQ7SFBTmWzPRwsyP+jJMyyQKfYOnk9kXJKv94LALuPHDnmstsNlBOckpGRUQDgHIUMcWE4Ew9AhNlg6y1mLvOAZAJv46C4BgBcrriOTofjtcLrhcaCJtpChA5nsmt0AvOOgP/0n4MaE7M9vhbElMFBozsDGZZhdAQAtzs2EYQTKLQXSlJu1G6IC8cZBRAaU8Hocbqg4IuyMhpB/U8m3OFy2GeAxXjF/HbJdK/XuwLgHS6HfanTYV8Koi1ZPt8yMP2gCF+5nPapDNRnIb7SoGcYeNTlsM9gS04lxrlOFcJul90+65zrIS4tMTExkRWlJyYm2txud3ipyyo2NjaidN7o6OgoVByVVOViFkOEqFLIsi4mJibaIiIiotxut87NzS3zq9vz1Vu/fv3ax44dCwL/2371UlIsU+KxY5b3d9Kn3wNn1gLc7tgroOXDYPRjoGGJPCfBWAvghWyfr9z4d5fd3g0CI8HoAcBdImk3CPMZ4nWPx1Pm2nxR+UeJcDMDGdle38jy8v0SnE7nlQT9MBh9ASSUSDoB0BoB/H2/11ulgzp/KwIA3A7H3WzJzcwYU2rwASAChB4MdCmrArfbHe1y2OeCsASMkTh78AGgERj3E/Rmt9P+HMpbgCJ2M9AGwAU5F89lt99HrH8A4z6cPfgAEAlwTw3d+UK0VZURLru9G4MnAbARsJGJB1mMuGyvj0iqumB0B3gSEZ9z9q3T6YxhK7gSQD8AIPACJjFEqKDLHwhGSc2NmfguANvAMJjxjMth/3dlC+V0OnuBMBGACWAdGAOKZYKQMdDcg8HvMNMFO32ryuKy2790Oezsdth3n8fCL20vkMthn+ty2NnlsGun3T6mvIJtAMPliJ9SlJdddvs5hyq6HPHji9LX/lpZinE67F8V1uX4MT4+vqIj2Mu0gaoTAoSrAYAZSw8ePHiigrxnGYNuu70Piu58gF7y+HwTyyu4EQhke3PuALC+qNWXEhMTbb+t6+VDKJQJ0EtycnLK3dgJpWSqjigCjhRuqYVGv6QgEwq/ymF4ateNHpvtPe8GWUEm/RdisQAMR37eiesBfPprOn1eCEfAcAPiF8lUjNPprEFa38eEQcRwAsgjovUsxL+ys7PP+RTN7bSPZWaHgJgZFR2dfuTQoYcI6MOEoGbcKoS4kti6FQBIGk8Vr4ie2278KGK0Y6ZMj8931smgboejD4NHEdCMC59cu8H4LNvn+wSlb06How9DDyEib5bHN9Ztt3ctHC+2g+m12nXrfnn06MEUaZFPgFBs2Xd12u1/xs+IEkpKSjIBpAIAE31U5K8/Lx7PgcUAcgEAmnr8nDK/BmYqkol7uh3xD+MXRD45nc4rBestILxKQBcQEkFoweBR0NYGpzN+1LntYThAo5m41ZHDB98nwisg9CCgNzNHSFmwG6BRAI3WOjCkrHbbAAYx/QOg0SU/NCmcPu2TGfwVgBsYaAbgSgB9QZjsdNjnJCQkhJ1VGelWAI0GY5jbbu/LhMUArgcomQSSjh49msAsIy0gSQQsfgVFe+gR4RWX3b7Q6XSWuRVaMYcPH24OIBwABPMveY3SADYUdhKVFlJtBoP/AJAFAAya4HI4vna54s7bnsvlqkusFzHQkICNELqT3eszLUZDBr8DQBLoTbc7rkVZ5VmjExENJ8IrBLoeoEcBnNq//6AHwAIAIBY3llXWZ7f3QuGRM/kQlgoEAQAAB+lJREFU4sxHKj6H/XUAtwE4QaB7pGFG2/L9tQl0KwjHCOhTkJ8/tsz+AIIJE0BYzsQ3A3QbNNYZhrFPWJaXmH9SOTk5B1wuVzK0NQtAaxB6EOsNbofjMwt4yuv1nvNNnGSO46J7ShQpz8+FGF4uXEGq+0vK/RL25ub6HA5HZ8E8C4QWAPeEFt+6HPGfMsmnPR5P2Vu6svU8ADcYO/2WlZqbm3syGwB8vr0ARruc9sZgdGdLPArgXF8FYSCY7svyeiedWzc+BKEvwN3i4+PjcnJyzgpAJaIRDAaDZnqysw8BgDs+vj0D9wJgAg3P8nrnlyjysctulyB8SIQxMTExL5Rhw11JwMosj68Xzl1sWwsU+QGys7Ozsr2+dswYg8KoF2LwzQK83eWI/ztK+eQZ+N/bAvMvjRXMK6rkvF/f/ha8Xu9P2T5fGyJ+CIVbuAqAbiHWO4r8EWe9ASQkJIQV+THAgp8pM/RM4yMAAKFnOc3uz/Z63ysrwQgLm1XUDyWJbiiZFhsbG8HgwQAgmN8pvs5E9wAAA1+XGnwAgN3n+xSFAxthmmbHMpolTfp5nDv4Zyg5sEGPz/fv+vXr/ydYUPAEER4CEA7QX1wO+zVBzcOKLWoiOs5Fq7VBKWuVV3lZMCGqsA5cjJj6YJYn5w232/0JdPApZjwAIJwZz7js9tYsxE0ejycPAAoK8q4hiBoAIFhEuOz2c3YgI4FGzAAYDqfTWaO47BkYi1HOj7137958l9P+GRj3g3AjgDP+EFOpIQDXAPBjls+3rESxlKKKD5XVn6Io3qMAYoj5XIOXEPB4Diwp99dBGatt+/btOwLgSbfb/QZbwQkAbgDQVwnxAoA/AgC0zoYonAMErKsAfFdRI6V6lVi41E+ZP7/Mb6PI6n7M6XS+Lth6nUHXgTBQQD8H4DEAIC2cxaYig98uy2zkEhEKwWAwEsVPsyJIoMLdwoXGh5pwPwGd3W63KysrK7uovRFUWP+7KBkHQXAU/kUjQBhRUd1MHHXuRXhwnlfdcpdbizo33GW3fwHCIIDHREdHP3P48OHjWTk5GS6H/TCAaAb1xM98nStc/uVrCvumf7PD55dSNPdf73LYZwPox4yHnE7ns+fcycA4ZlToJdRalxWeVmHI2n6fb73TYc8gIIktaxiACQmxsfYAkAagwGKeXKpI0f7HvEAzVXiTicL1mtKFK/KBADj/ejuz4DeIaRAAFW4YzQCsAaAZNJPAd4FxY4OYmKd/OnjwvI6AcJvtToDDALCwuMKj1ysRTYyJTOiHQldxUwDfEpBbfOtJxvv7fL6MSmm90Bh8BcQ3ApgQVOJGFNojn5c2DAEcAJAApu89Pt+TldGdn7NFzBlXKkt55n2fhHgFhACA8KCh3sN5lKleXFxjAj9XWBjT9h84UOnfGZQHl5BJWlYBAOQHg9+iaP7WRMmV1bZpWR8DCILR3uFwNGDQHwCASbxzTmbCusI0rrT+CJfDPtnpdJa5AtcGMEhT8T48R+rUqbOlOC07O/tHBopPyezrsttn2O32Mo9OredwdNFCLGcgCkAuQzx2QaUohdMR/7HL5WpSVlpSUpLJhOLDHXP35+RsB4CiV6gvAYDBf20QE+Moq7zL5WpSnpw/h725uT4Q5gMgAQwF0JaAPR6PZ1HpvAz+uPBflOx2OMq0ARISEsLO57epCAWgD7G+1eWI/wZES6CxmwVLYiT4iG4GozEAMOOvpT1+Ho/vFbfdXo8JD4AwSBIyXU77F8T8HUPkE7GDGT00uHORUXUQmgd5cjwV+Q4SXU57udNDeI2IW3fu3OkvLx0ACOgPbf3B7bCvBCGdC2VSxGh47PChP1DRkjeB/oISVjtJ60m2ZG8A7qAh17sd8a8Q0zfMnK8lGpGmwdDWHwBcg2KP5q+AmD5k8ACAHwEgGPQeyghS8Xhy5jgd9vkE9GHwZJfD3hmCp0uLfExUVwMpAX/+3WB8BuDbX9MXhUKPWRxAyWAkgwDiM+YwCDiuGU+Xs9jDWT7fg25n/CZmehGMWAAjGTQS4JJWswZhhqXxuC8nZ+95+hQNxjmvPMXk5eXdfn6xKAtAbQZSwEgpKVPRuscxMD2R5fWe9djNysrd6XQ6+xD0NDC5GJjABIAIxCg0yQi7tKV/0+FQYTVrzjl96uQhAPUABIUKfFBOVs73F9wYHmZ+CkZ/APdC070WnZEEAPIF0a/eppYASKfT2RFadxRAfQYagFBQ6LGjdbb8/Fm7jxw5dr6KYmNjI0wp+xDQlQlOAH0A1ABwQFi60/nmfJcrriNp2fx87WR5ve+jAsdGEaqew9HJIu5wRiZGPjO8gmhtnt8/+/Dhw8fLKxwfH19TStxImjqDEA/CKQL2ssXL7Tk5X2/E2W8ILrt9OBHVZmGtzc4+8LO2jHE6nb0EcwKAg1leb5mh+CVx2+2pTBhI4EaAIA3kErAxYFmfHzhwIOes/rhcrUjrdsx8JNvnm1ZRvZX2ebjTGdeTWMwGYANjsT8YHHKe5eYQl4BK2yjS4zmwkImHgxAAoYfNMDY6nc5eOFvpqn1AxqWm0jeIcNvt/ZjwMYA6RZdyAewHEAHQpGyvd1xl9yFE+VT6VrFZPt+8oOY2IMxFoaUbi0IrugmYK10BQ1TMRR0At9vt4kCgNQnhAHAwyLzS5/P96tepECFChAgRIkSIECFChAgRIkSIECFChAgRIsR5+f8b70E7GGImYQAAAABJRU5ErkJggg==;" vertex="1" parent="1">
          <mxGeometry x="260" y="30" width="80" height="80" as="geometry" />
        </mxCell>
        <mxCell id="BNOFNAKZuXbQfmV0z-QA-67" value="SQL SERVER" style="text;html=1;align=center;verticalAlign=middle;whiteSpace=wrap;rounded=0;" vertex="1" parent="1">
          <mxGeometry x="320" y="55" width="80" height="30" as="geometry" />
        </mxCell>
      </root>
    </mxGraphModel>
  </diagram>
</mxfile>
